<svg xmlns="http://www.w3.org/2000/svg" xmlns:xlink="http://www.w3.org/1999/xlink" viewBox="0 0 324.41 343"><defs><style>.cls-1{isolation:isolate;}.cls-2{fill:url(#_216);}.cls-3{opacity:0.4;fill:url(#_107);}.cls-21,.cls-3,.cls-4,.cls-8,.cls-9{mix-blend-mode:screen;}.cls-21,.cls-4{opacity:0.5;}.cls-4{fill:url(#_107-2);}.cls-5{fill:url(#_172);}.cls-6{fill:url(#_175);}.cls-7{mix-blend-mode:multiply;fill:url(#linear-gradient);}.cls-20,.cls-21,.cls-8,.cls-9{fill:#fff;}.cls-8{opacity:0.75;}.cls-9{opacity:0.25;}.cls-10{fill:#f57b6f;}.cls-11{fill:#ed3038;}.cls-12{fill:#ec5648;}.cls-13{fill:#ab0a09;}.cls-14{fill:#ffb7b0;}.cls-15{fill:url(#_135);}.cls-16{fill:url(#_176);}.cls-17{fill:url(#_185);}.cls-18{fill:url(#_185-2);}.cls-19{fill:url(#_187);}</style><linearGradient id="_216" x1="37.64" y1="166" x2="287.64" y2="166" gradientUnits="userSpaceOnUse"><stop offset="0" stop-color="#ffc138"/><stop offset="0.59" stop-color="#eaa014"/><stop offset="1" stop-color="#de8d00"/></linearGradient><linearGradient id="_107" x1="37.64" y1="150.29" x2="174.72" y2="150.29" gradientUnits="userSpaceOnUse"><stop offset="0" stop-color="#fff11f"/><stop offset="1" stop-color="#f5ca1e"/></linearGradient><linearGradient id="_107-2" x1="37.64" y1="144.95" x2="171.74" y2="144.95" xlink:href="#_107"/><linearGradient id="_172" x1="46.55" y1="242.27" x2="199.18" y2="242.27" gradientTransform="translate(320.25 55.65) rotate(73.5)" gradientUnits="userSpaceOnUse"><stop offset="0" stop-color="#ffe438"/><stop offset="0.4" stop-color="#eca91f"/><stop offset="0.8" stop-color="#db7409"/><stop offset="1" stop-color="#d46000"/></linearGradient><linearGradient id="_175" x1="52.27" y1="242.27" x2="193.46" y2="242.27" gradientUnits="userSpaceOnUse"><stop offset="0" stop-color="#ebae24"/><stop offset="0.34" stop-color="#d08216"/><stop offset="0.78" stop-color="#b04d06"/><stop offset="1" stop-color="#a33900"/></linearGradient><linearGradient id="linear-gradient" x1="115.35" y1="260.88" x2="131.51" y2="220.86" gradientUnits="userSpaceOnUse"><stop offset="0.24" stop-color="#fff"/><stop offset="0.33" stop-color="#f8f3f5"/><stop offset="0.5" stop-color="#e7d5db"/><stop offset="0.71" stop-color="#caa3b0"/><stop offset="0.97" stop-color="#a35e76"/><stop offset="1" stop-color="#9e556e"/></linearGradient><linearGradient id="_135" x1="201.46" y1="241.52" x2="215.72" y2="241.52" gradientUnits="userSpaceOnUse"><stop offset="0.05" stop-color="#7cbede"/><stop offset="0.26" stop-color="#89c4de"/><stop offset="0.66" stop-color="#aad4df"/><stop offset="1" stop-color="#cbe5e0"/></linearGradient><linearGradient id="_176" x1="166.79" y1="218.54" x2="185.25" y2="218.54" gradientUnits="userSpaceOnUse"><stop offset="0" stop-color="#cbe5e0"/><stop offset="0.34" stop-color="#aad4df"/><stop offset="0.74" stop-color="#89c4de"/><stop offset="0.95" stop-color="#7cbede"/></linearGradient><linearGradient id="_185" x1="125.83" y1="201.82" x2="144.29" y2="201.82" gradientTransform="translate(23.71 -13.99) rotate(6.5)" gradientUnits="userSpaceOnUse"><stop offset="0" stop-color="#dce5e2"/><stop offset="0.18" stop-color="#d7e3e2"/><stop offset="0.4" stop-color="#c8dde1"/><stop offset="0.63" stop-color="#b0d3e0"/><stop offset="0.88" stop-color="#8fc6df"/><stop offset="1" stop-color="#7cbede"/></linearGradient><linearGradient id="_185-2" x1="82.53" y1="192.74" x2="100.99" y2="192.74" gradientTransform="matrix(1, 0, 0, 1, 0, 0)" xlink:href="#_185"/><linearGradient id="_187" x1="43.92" y1="192.97" x2="57.42" y2="192.97" gradientUnits="userSpaceOnUse"><stop offset="0.17" stop-color="#e6f0ed"/><stop offset="0.31" stop-color="#e1eeec"/><stop offset="0.48" stop-color="#d2e7ea"/><stop offset="0.67" stop-color="#badbe7"/><stop offset="0.86" stop-color="#99cce2"/><stop offset="1" stop-color="#7cbede"/></linearGradient></defs><title>ALL TIME CLASSICS</title><g class="cls-1"><g id="Layer_1" data-name="Layer 1"><path class="cls-2" d="M287.64,145,223.9,155.7s.32,18.51-15.56,27.53c-8.74,5-28.23,5.39-36.2-10.95-6-12.42,1-24.16,8.08-29.75a40.33,40.33,0,0,1,18-8.2,240,240,0,0,1-12.68-29.22c-5.13-14.85-10.81-37.89-10.81-37.89S157.41,83.45,145,93.11a240,240,0,0,1-26.55,17.59,40.34,40.34,0,0,1,10.62,16.68c2.86,8.53,2.41,22.24-9.43,29.35-15.59,9.36-31.69-1.61-36.32-10.53-8.41-16.22,1.94-31.56,1.94-31.56L37.64,71s11.09,37.72,15.62,66.92c6.58,42.44-6.44,81.85-6.44,81.85l76.05,22.53,76,22.52s10.55-40.13,39.19-72.14C257.8,170.62,287.64,145,287.64,145Z"/><path class="cls-3" d="M159.59,159.16c6.66-27.79,14.8-89.88,15.13-91.94C169,72.47,153.94,86.15,145,93.11a240,240,0,0,1-26.55,17.59,40.34,40.34,0,0,1,10.62,16.68c2.86,8.53,2.41,22.24-9.43,29.35-15.59,9.36-31.69-1.61-36.32-10.53-8.41-16.22,1.94-31.56,1.94-31.56L37.64,71s11.09,37.72,15.62,66.92c6.58,42.44-6.44,81.85-6.44,81.85l14.33,7.11c9.79-2.06,44.85,9.63,54.76,5.7C139.47,223.21,145.76,216.83,159.59,159.16Z"/><path class="cls-4" d="M143.27,147.78c9.52-26.94,31.61-80.65,28.09-77.49-6.78,6.08-20.47,18.24-26.34,22.82a240,240,0,0,1-26.55,17.59,40.34,40.34,0,0,1,10.62,16.68c2.86,8.53,2.41,22.24-9.43,29.35-15.59,9.36-31.69-1.61-36.32-10.53-8.41-16.22,1.94-31.56,1.94-31.56L37.64,71s11.09,37.72,15.62,66.92c6.58,42.44-6.44,81.85-6.44,81.85S123.82,202.76,143.27,147.78Z"/><ellipse class="cls-5" cx="122.87" cy="242.27" rx="22.46" ry="79.31" transform="translate(-144.32 291.26) rotate(-73.5)"/><path class="cls-6" d="M118.11,258.31c-19.82-5.88-37.74-13.54-50.46-21.59s-15.79-13.8-15.33-15.35,6.25-4.71,21.22-4.53,34.26,3.52,54.08,9.39,37.74,13.53,50.46,21.58,15.79,13.8,15.33,15.36-6.25,4.7-21.22,4.52S137.93,264.18,118.11,258.31Z"/><path class="cls-7" d="M118.11,258.31c-19.82-5.88-37.74-13.54-50.46-21.59s-15.79-13.8-15.33-15.35,6.25-4.71,21.22-4.53,34.26,3.52,54.08,9.39,37.74,13.53,50.46,21.58,15.79,13.8,15.33,15.36-6.25,4.7-21.22,4.52S137.93,264.18,118.11,258.31Z"/><path class="cls-8" d="M69.37,158.38c-.18-17.83-2.62-29.88-7.67-47-1.38-4.68-9.43-25.73-19.16-34.86-1.9-1.78-2.64.45-2,2.6,2,6.89,6,22,7.37,25.93a167.74,167.74,0,0,1,6.34,24.76,181.81,181.81,0,0,1,2,49.68c-1,9.54-1.32,18.78-4.37,28.34-1,3,6.36,1.93,7.73.47,5.18-5.47,6.16-15.73,7.37-24.51S69.45,167.11,69.37,158.38Z"/><path class="cls-9" d="M211.79,202.08c9.54-14.57,17.94-23.17,31.19-34.5,3.63-3.11,21.49-16.09,34.5-18.35,2.53-.44,2,1.8.33,3.22-5.33,4.59-16.7,14.88-19.87,17.37a161.89,161.89,0,0,0-18.37,16.94,173.39,173.39,0,0,0-27.87,39.76c-4.22,8.37-8.77,16.16-11.25,25.67-.79,3-6.37-1.84-6.76-3.78-1.47-7.29,3.1-16.26,6.71-24.13S207.12,209.21,211.79,202.08Z"/><polygon class="cls-10" points="133.9 163.77 145.04 167.07 149.72 151.25 133.9 163.77"/><polygon class="cls-11" points="156.37 170.43 145.04 167.07 149.72 151.25 156.37 170.43"/><polygon class="cls-12" points="133.9 163.77 145.04 167.07 140.38 182.78 133.9 163.77"/><polygon class="cls-13" points="156.37 170.43 145.04 167.07 140.38 182.78 156.37 170.43"/><polygon class="cls-14" points="143.27 113.52 159.44 118.31 166.24 95.34 143.27 113.52"/><polygon class="cls-11" points="175.88 123.18 159.44 118.31 166.24 95.34 175.88 123.18"/><polygon class="cls-12" points="143.27 113.52 159.44 118.31 152.68 141.12 143.27 113.52"/><polygon class="cls-13" points="175.88 123.18 159.44 118.31 152.68 141.12 175.88 123.18"/><polygon class="cls-10" points="163.05 106.35 151.1 115.8 156 130.15 168.06 120.83 163.05 106.35"/><polygon class="cls-10" points="59.63 158.38 47.82 158.68 53.75 142.55 59.63 158.38"/><polygon class="cls-13" points="59.63 158.38 47.82 158.68 54.58 175.42 59.63 158.38"/><polygon class="cls-12" points="39.76 97.88 46.93 108.6 46.91 108.64 57.21 106.83 41.67 85.29 39.76 97.88"/><polygon class="cls-13" points="46.91 108.64 45.29 122.08 52.32 131.83 57.21 106.83 46.91 108.64"/><polygon class="cls-14" points="39.76 97.88 45.29 122.08 46.91 108.64 46.93 108.6 39.76 97.88"/><polygon class="cls-11" points="221.58 206.35 231.32 213.04 235.13 196.28 221.58 206.35"/><polygon class="cls-13" points="221.58 206.35 231.32 213.04 216.53 223.4 221.58 206.35"/><polygon class="cls-11" points="271.2 166.44 259.35 171.53 259.34 171.57 251.68 164.45 276.45 154.84 271.2 166.44"/><polygon class="cls-13" points="259.34 171.57 253.38 183.72 242.17 188.07 251.68 164.45 259.34 171.57"/><polygon class="cls-10" points="271.2 166.44 253.38 183.72 259.34 171.57 259.35 171.53 271.2 166.44"/><path class="cls-15" d="M209.94,232.69c-4.73-1.9-11.62,15.22-6.9,17.13a9.23,9.23,0,0,0,6.9-17.13Z"/><path class="cls-16" d="M183,212.55a9.23,9.23,0,1,0-1,13A9.22,9.22,0,0,0,183,212.55Z"/><circle class="cls-17" cx="135.06" cy="201.82" r="9.23" transform="translate(-21.97 16.58) rotate(-6.5)"/><path class="cls-18" d="M96,184.55A9.23,9.23,0,1,0,100,197,9.24,9.24,0,0,0,96,184.55Z"/><path class="cls-19" d="M55.13,184a9.23,9.23,0,0,0-4,18C56.16,203.15,60.11,185.12,55.13,184Z"/><path class="cls-20" d="M50,192c-.43,2-1.75,3.38-3,3.12s-1.83-2.08-1.4-4.06,1.74-3.39,3-3.13S50.43,190.05,50,192Z"/><ellipse class="cls-20" cx="88.88" cy="190.56" rx="3.68" ry="3.53" transform="translate(-116.13 237.28) rotate(-77.83)"/><path class="cls-21" d="M136,199.6a3.53,3.53,0,1,1-2.67-4.33A3.59,3.59,0,0,1,136,199.6Z"/><ellipse class="cls-21" cx="174.72" cy="214.88" rx="3.68" ry="3.53" transform="translate(-72.16 340.38) rotate(-77.83)"/><path class="cls-21" d="M213.31,239.9c-.43,2-2,3.32-3.59,3s-2.46-2.21-2-4.2,2-3.32,3.58-3S213.73,237.91,213.31,239.9Z"/></g></g></svg>