<svg id="Layer_1" data-name="Layer 1" xmlns="http://www.w3.org/2000/svg" xmlns:xlink="http://www.w3.org/1999/xlink" viewBox="0 0 324.41 343"><defs><style>.cls-1{fill:none;}.cls-2{clip-path:url(#clip-path);}.cls-3{fill:#ede600;}.cls-4{fill:#006968;}.cls-5{fill:#004653;}.cls-6{fill:#ffce00;}.cls-7{fill:#e89715;}.cls-8{fill:#af792b;}.cls-9{fill:url(#linear-gradient);}.cls-10{fill:#d8ab48;}.cls-11{fill:#007c70;}.cls-12{fill:url(#radial-gradient);}.cls-13{fill:url(#linear-gradient-2);}.cls-14{fill:#007c7f;}.cls-15{fill:#dda300;}.cls-16{fill:#ffe315;}.cls-17{fill:#f7c800;}.cls-18{fill:#fffa57;}.cls-19{fill:url(#linear-gradient-3);}.cls-20{fill:#008799;}.cls-21{fill:#00e2d1;}.cls-22{fill:#85ffe2;}.cls-23,.cls-24,.cls-29{fill:#a4f4ff;}.cls-23,.cls-30{opacity:0.3;}.cls-25{fill:url(#linear-gradient-4);}.cls-26{fill:#06caea;}.cls-27,.cls-30,.cls-33{fill:#fbfbfb;}.cls-27{opacity:0.89;}.cls-28{opacity:0.12;fill:url(#radial-gradient-2);}.cls-29{opacity:0.2;}.cls-31{opacity:0.47;fill:url(#radial-gradient-3);}.cls-32{opacity:0.81;fill:url(#radial-gradient-4);}.cls-33{opacity:0.8;}.cls-34{opacity:0.57;fill:url(#radial-gradient-5);}.cls-35{fill:url(#radial-gradient-6);}</style><clipPath id="clip-path"><path class="cls-1" d="M-103.08,189.16A121,121,0,0,1-240.42,291.25a121,121,0,0,1-102.1-137.34A121,121,0,0,1-205.17,51.81,121,121,0,0,1-103.08,189.16Z"/></clipPath><linearGradient id="linear-gradient" x1="198.44" y1="216.83" x2="207.44" y2="241.68" gradientUnits="userSpaceOnUse"><stop offset="0.01" stop-color="#e2b955"/><stop offset="0.4" stop-color="#ecc468"/><stop offset="1" stop-color="#ffd98d"/></linearGradient><radialGradient id="radial-gradient" cx="196.03" cy="101.3" r="89.31" gradientUnits="userSpaceOnUse"><stop offset="0.02" stop-color="#00cc82"/><stop offset="0.52" stop-color="#00b983"/><stop offset="0.99" stop-color="#00a384"/></radialGradient><linearGradient id="linear-gradient-2" x1="72.44" y1="185.98" x2="101.84" y2="168.48" gradientUnits="userSpaceOnUse"><stop offset="0" stop-color="#007c7f"/><stop offset="1" stop-color="#00a384"/></linearGradient><linearGradient id="linear-gradient-3" x1="179.54" y1="124.55" x2="172.58" y2="145.33" gradientUnits="userSpaceOnUse"><stop offset="0" stop-color="#003c72"/><stop offset="1" stop-color="#06caea"/></linearGradient><linearGradient id="linear-gradient-4" x1="-295.02" y1="601.43" x2="-286.71" y2="585.03" gradientTransform="matrix(0.96, -0.02, 0.17, 0.82, 354.55, -357.99)" gradientUnits="userSpaceOnUse"><stop offset="0" stop-color="#0068b5"/><stop offset="0.03" stop-color="#0061aa"/><stop offset="0.1" stop-color="#005191"/><stop offset="0.18" stop-color="#004580"/><stop offset="0.27" stop-color="#003e75"/><stop offset="0.37" stop-color="#003c72"/><stop offset="0.63" stop-color="#006386"/><stop offset="0.91" stop-color="#008799"/></linearGradient><radialGradient id="radial-gradient-2" cx="-1053.9" cy="3215.87" r="20.48" gradientTransform="matrix(0.59, 0.05, 0.14, 0.42, 342.2, -1183.53)" gradientUnits="userSpaceOnUse"><stop offset="0" stop-color="#f1ffe7"/><stop offset="0.1" stop-color="#e2fdec"/><stop offset="0.32" stop-color="#c7f9f4"/><stop offset="0.54" stop-color="#b4f6fa"/><stop offset="0.77" stop-color="#a8f5fe"/><stop offset="1" stop-color="#a4f4ff"/></radialGradient><radialGradient id="radial-gradient-3" cx="94.29" cy="-3414.77" r="3.08" gradientTransform="translate(-1986.35 -2527.85) rotate(139.21)" gradientUnits="userSpaceOnUse"><stop offset="0" stop-color="#fff"/><stop offset="0.99" stop-color="#a4f4ff"/></radialGradient><radialGradient id="radial-gradient-4" cx="94.54" cy="-3414.86" r="1.54" gradientTransform="translate(-1986.35 -2527.85) rotate(139.21)" gradientUnits="userSpaceOnUse"><stop offset="0" stop-color="#fff"/><stop offset="1" stop-color="#a4f4ff"/></radialGradient><radialGradient id="radial-gradient-5" cx="994.84" cy="-2705.82" r="2.76" gradientTransform="translate(-2346.99 -1245.36) rotate(98.66)" gradientUnits="userSpaceOnUse"><stop offset="0" stop-color="#fff"/><stop offset="0.54" stop-color="#d0f9ff"/><stop offset="1" stop-color="#a4f4ff"/></radialGradient><radialGradient id="radial-gradient-6" cx="995.07" cy="-2705.9" r="1.38" gradientTransform="translate(-2346.99 -1245.36) rotate(98.66)" gradientUnits="userSpaceOnUse"><stop offset="0" stop-color="#fff"/><stop offset="0.18" stop-color="#f9feff"/><stop offset="0.42" stop-color="#e7fcff"/><stop offset="0.71" stop-color="#caf9ff"/><stop offset="1" stop-color="#a4f4ff"/></radialGradient></defs><title>BOOK OF SLOTS</title><g class="cls-2"><path class="cls-3" d="M7.68,171.22c-75.95,36.35-126.61,47.93-160.58,43.17-34.31-4.42-51.93-25.18-69.65-45.87,2.31,27.14,4.51,54.3,29.79,78,24.82,23.73,72.73,44,155.63,58.83Q-14.72,238.28,7.68,171.22Z"/><path class="cls-3" d="M4.53,130.82c-68.4,49.1-116.24,69.4-150.52,70.67-34.56,1.67-55.55-15.68-76.61-32.94,7,26.31,14,52.67,43,71.52,28.6,19,79.31,30.51,163.54,30.62Q-5.77,200.76,4.53,130.82Z"/></g><path class="cls-4" d="M265.68,204.15c1.11,1.6,9.73,13.27,18.16,24.75a7,7,0,0,1-4.12,10.92L149.37,268.44a6,6,0,0,1-4.49-.74,4.57,4.57,0,0,0-2.73-.76,8.22,8.22,0,0,0-4.6,2.26,15.4,15.4,0,0,1-9.79,3.86S117.13,255,114.32,249.64c-2-3.82-4.88-19.08-4.88-19.08l27.48-27.63L250.7,178.5l28-.64,5.62,5.14-.07,6.62a4.47,4.47,0,0,1-3.53,4.3l-13.32,2.79Z"/><ellipse class="cls-4" cx="127.73" cy="245.21" rx="20.22" ry="27.85"/><path class="cls-5" d="M260,204.87l18.46,25.74a2.86,2.86,0,0,1-1.73,4.47l-122.7,26.46a30,30,0,0,1-10,.45l-2.21-.28a8.17,8.17,0,0,0-5.44,1.73C129.3,269,123.3,265.56,119.7,261h0c-5.2-7-6.42-20.84-.8-29.68l1.16-1.37,49.1,2.88Z"/><path class="cls-6" d="M203.54,255.82c0-.37,0-.72-.09-1a3.07,3.07,0,0,0-3.74-2.65c-8.52,1.93-39.5,8.92-48.88,10.92a1.37,1.37,0,0,0-1.08,1.28h0c-.23,4.35-4,3.79-4.72,3.39.65,1,1.25,1.86,1.79,2.68a8.3,8.3,0,0,0,8.79,3.45c10.9-2.57,34.78-8.39,44.36-10.7a4.83,4.83,0,0,0,3.69-5Z"/><path class="cls-7" d="M203.54,255.82l.12,2.39a4.82,4.82,0,0,1-3.7,5c-9.57,2.31-33.45,8.13-44.34,10.7a8.31,8.31,0,0,1-8.8-3.45c-.54-.82-1.15-1.72-1.79-2.68,5.86.29,4.4-3.79,4.78-3.26,1.06,1.51,2.95,1.13,4.75.74,10.13-2.21,36.6-8.57,47.18-11.07,1.25-.3,1.72.38,1.8,1.66Z"/><path class="cls-6" d="M286.12,227.37l-21-27.28a1.79,1.79,0,0,0-2.92.13s16.39,23.06,19.9,28.11c1.06,1.53,1,3.71-1.6,4.32-3.28.76-32.26,7.39-41.14,9.36-.43.1-1,.24-1.55.43a6,6,0,0,0-4.16,5.48,2.53,2.53,0,0,0,0,.28V253a2.34,2.34,0,0,0,2.84,2.29l48-10.52a5,5,0,0,0,3.93-4.68l.19-4.81A12.12,12.12,0,0,0,286.12,227.37Z"/><path class="cls-7" d="M236.76,245.94c-1.13.23-3.07,1-3.08,2.12V253a2.34,2.34,0,0,0,2.84,2.29l48-10.52a5,5,0,0,0,3.93-4.68l.14-3.4c0-.85-.67-1.74-1.51-1.56C275.58,237.53,245.74,244.05,236.76,245.94Z"/><path class="cls-8" d="M138.35,227.6h0l-6.3,30.27V261h0a10.61,10.61,0,0,1-.9-1,23.81,23.81,0,0,1-1.76-2.57l-12.9-20.83h0a16.14,16.14,0,0,1,2.4-5.35h0a12.43,12.43,0,0,1,4.33-3.92A15.61,15.61,0,0,1,138.35,227.6Z"/><path class="cls-9" d="M273.12,195.51l-1.37,1.88c-4.62,8.89-4.06,25.92,3.53,32.45h0L152.83,257.45l-14.9,3.1a23.35,23.35,0,0,1-5.59.48s-.32,0-.32-.08v-2l-.67-33.45.57,0a13.81,13.81,0,0,1,6.44,2h0c3.2,1.28,9.12.32,10.56-5.28h0c.48-3.52,6.34-3.71,8.64-4.16Z"/><path class="cls-10" d="M268.86,212.45h-.13q-26.49,5.65-53,11-25.74,5.22-51.53,10.15-16.27,3.14-32.56,6.19c0,.29,0,.57,0,.85s0,.38,0,.57a.72.72,0,0,0,.25,0q27.81-5.23,55.59-10.65,25.43-5,50.81-10.26,15.28-3.18,30.55-6.44A8.88,8.88,0,0,1,268.86,212.45Z"/><path class="cls-10" d="M268.85,209q-26.52,5.66-53.06,11.17Q190,225.47,164.2,230.5q-16.29,3.17-32.58,6.23c0,.47,0,1,0,1.42a.77.77,0,0,0,.26,0q27.84-5.25,55.63-10.78,25.47-5.09,50.87-10.45,15.23-3.19,30.42-6.45c0-.5,0-1,.06-1.48Z"/><path class="cls-10" d="M215.87,216.58q-26.09,5.34-52.24,10.38-16,3.1-32.11,6.13c0,.49,0,1,0,1.45q27.84-5.25,55.64-10.73,25.78-5.1,51.52-10.49,15.17-3.16,30.33-6.41a9.94,9.94,0,0,1,.24-1.53Q242.6,211.08,215.87,216.58Z"/><path class="cls-10" d="M217,212.78q-26.64,5.57-53.34,10.84-9.18,1.8-18.37,3.56a2.08,2.08,0,0,1-.72.39,1.63,1.63,0,0,1-.3.07,3.85,3.85,0,0,1-1.24.47,7,7,0,0,1-2.86.06l-8.67,1.64c0,.09,0,.17,0,.26,0,.4,0,.8,0,1.21q28.13-5.31,56.19-11Q214,215,240.28,209.34l29.41-6.27a2.41,2.41,0,0,1,.12-.64c.11-.3.21-.51.3-.75l.06-.18Q243.58,207.19,217,212.78Z"/><path class="cls-10" d="M218.18,208.86q-26.93,5.59-53.92,10.9-7.71,1.52-15.43,3a7.26,7.26,0,0,1-.7,1.59q20.2-3.89,40.37-7.94,26.63-5.37,53.2-11,14.61-3.09,29.21-6.21a5.38,5.38,0,0,1,.8-1.65Q245,203.26,218.18,208.86Z"/><path class="cls-10" d="M135.3,226.27a13.72,13.72,0,0,1-1.51-.45,4.15,4.15,0,0,1-.48-.11l-1.94.37a1.34,1.34,0,0,1,0,.2,1.26,1.26,0,0,1,0,.28c0,.33,0,.65,0,1h0l4.91-.93-.32-.13Z"/><path class="cls-10" d="M273.35,227.8q-26.88,6.36-53.85,12.34t-53.8,11.71L132,259.1a14.06,14.06,0,0,1,.06,1.45h0Q161,254.31,190,248.08q26.49-5.75,52.94-11.73,15.81-3.6,31.57-7.34A9.94,9.94,0,0,1,273.35,227.8Z"/><path class="cls-10" d="M271.88,225.53c-17.85,3.87-35.69,7.82-53.54,11.72-18,3.94-36,7.81-54.06,11.49q-16.17,3.3-32.37,6.41c0,.17,0,.33,0,.5s.05.63.07.94q28.33-5.43,56.56-11.44c17.8-3.78,35.57-7.69,53.34-11.6q15.36-3.37,30.73-6.71C272.37,226.42,272.12,226,271.88,225.53Z"/><path class="cls-10" d="M270.59,222.58a1.05,1.05,0,0,1-.06-.24c-17.79,3.85-35.56,7.77-53.34,11.63S181.74,241.59,164,245.2q-16,3.26-32.05,6.32a7.92,7.92,0,0,1,0,1.46q28-5.39,56-11.27c17.52-3.69,35-7.51,52.5-11.34q15.3-3.35,30.6-6.67C270.87,223.33,270.72,223,270.59,222.58Z"/><path class="cls-10" d="M269.66,219.26s0,0,0-.07q-26.32,5.7-52.67,11.32-26.62,5.64-53.31,11-15.91,3.16-31.85,6.22c0,.49,0,1,0,1.46q28-5.35,55.84-11.08Q214,232.69,240.25,227q14.85-3.19,29.69-6.42A9.5,9.5,0,0,1,269.66,219.26Z"/><path class="cls-10" d="M269,215.69q-25.42,5.51-50.87,10.89-26.91,5.67-53.89,11Q148,240.86,131.72,244a7.87,7.87,0,0,1,.07,1.45q28.38-5.43,56.7-11.21,26.61-5.44,53.17-11.15l27.61-5.95C269.18,216.64,269.1,216.17,269,215.69Z"/><path class="cls-11" d="M144.53,216.3h0c-.58,4.17-2.91,6.09-6.35,5.22l0,0-69-121.22h0a6.63,6.63,0,0,0,5.95-5.65l0-.29Z"/><path class="cls-12" d="M75.11,94.33h0l69.42,122h0c1.07-2.36,4.95-3.49,7.86-4.07L281.18,187a3.85,3.85,0,0,0,2.33-6.1L206.44,79.75a12.93,12.93,0,0,0-12.1-5L83,90.62C80,91,76,92,75.11,94.33Z"/><path class="cls-13" d="M69.17,100.26h0C52.39,87,38.39,106,38.63,125.16A40.66,40.66,0,0,0,42,138.93c4.48,9.1,63.46,118.16,70.27,124.24-5.43-10.38-4.86-16.87-4.51-21.74,1.11-15.19,16.68-32.31,30.44-19.9h0Z"/><path class="cls-14" d="M227.65,107.16l-18.6-6.29a9,9,0,0,0-5.89,0l-10,3.55a4.17,4.17,0,0,0-2.78,3.9L190.31,122l11.51,9.44h0a6.92,6.92,0,0,1-.17,3.35l-1.53,5.12,23.78,15.89,17.71,22.36L230,197.61l-2.73.31,9.26-15.24a5.86,5.86,0,0,0-.51-6.8L224.24,161.8a8.32,8.32,0,0,0-4.69-2.84l-19.74-4.24a2.68,2.68,0,0,0-3.12,1.85l-1.39,4.69a4.84,4.84,0,0,1-6.25,3.19l-9.8-3.47a3.12,3.12,0,0,0-3.38.89l-10.45,12-3.74-.61-1-17.06a4.24,4.24,0,0,0-2.62-3.69l-8.38-3.34a3.93,3.93,0,0,1-2.2-5.07l2.47-6.31a3.62,3.62,0,0,0-1.1-4.15l-20.39-16.55a7,7,0,0,0-3.94-1.55l-12.86-.85a5.32,5.32,0,0,0-4.9,2.56c-3.21,5.35-10,16.55-10.27,16.55s-4.76-5.57-4.76-5.57,2.93-16.08,3.34-17,16-10,16.39-9.91,15-18.42,15-18.42l2,1.22L118.37,98.15s2.23,9.92,2.53,10,45.73,22.26,45.73,22.26l20.24-24.28-8-15.6a5.94,5.94,0,0,0-3.13-2.83l-19.35-7.58,3.65-2.63,43.81,6.58Z"/><path class="cls-7" d="M128.62,80.72v3.37l-.17,0a2.76,2.76,0,0,0-1.74,1l-8.64,11.18,11,14.77-.21,2.63-20.23-1.61L97.77,128.3a2,2,0,0,1-1.53.88h0a1.66,1.66,0,0,0-1.53,1.52l-.34,3.81a.65.65,0,0,1-1.22.27L72.3,99l2-5.57a4.7,4.7,0,0,0,.28-1.53V89.62a1.57,1.57,0,0,1,1.35-1.54Z"/><path class="cls-15" d="M156.52,76.4l-.11,3.74,1.3-.11a5.14,5.14,0,0,1,2.2.31l16.64,6.22A6.32,6.32,0,0,1,180,89.65l7.59,15.18,1.31.51,15.13-6a5.77,5.77,0,0,1,4.17-.06l17.23,6.4a4,4,0,0,1,1.82,1.37l1,1.37,1.32-3.34L196.38,83.38Z"/><path class="cls-7" d="M218,163.76l-.21,2.12,17.3,21.25-11.13,16.29-.08,7.57a1.59,1.59,0,0,0,1.89,1.57l54-10.28a4.11,4.11,0,0,0,3.33-3.69l.48-5.73Z"/><path class="cls-7" d="M120.7,174.24l-.29,4a10.47,10.47,0,0,0,1.32,5.85l18.8,33.23a9.53,9.53,0,0,0,5.68,4.48h0a11.1,11.1,0,0,0,5.28.19l49.68-10.34a2.71,2.71,0,0,0,2.15-2.58l.14-5.35Z"/><path class="cls-15" d="M223.9,155.83l-.2,2.12-26.3-5.69a1.2,1.2,0,0,0-1.42.86l-1.69,6.24a4.58,4.58,0,0,1-6.14,3l-9.81-4a2.14,2.14,0,0,0-2.49.65l-10.73,13.45-2.3-.54-.38-18.87a1.31,1.31,0,0,0-.78-1.15l-9.6-4.09a3.3,3.3,0,0,1-2-2.88c-.07-1.39-.15-2.82-.15-2.82l2.66-7.15-25-21.45.48-2.3,41,16.46,20.1-24.15,1.05.85-.24,20.47,12,3.2-.13,3.37a9.09,9.09,0,0,1-.39,2.32L198,145.13Z"/><polygon class="cls-16" points="75.54 88.61 128.15 80.78 116.95 95.08 128.69 111.27 107.78 109.65 96.58 125.44 75.54 88.61"/><path class="cls-17" d="M75.7,89.19l17.76-2.64,28.32-4.21,6.53-1-.59-1-9.78,12.5-1.42,1.8a.64.64,0,0,0-.09.74l10.26,14.16c.5.67,1,1.35,1.48,2l.52-.91-17.87-1.39a27.7,27.7,0,0,0-2.88-.22c-.62,0-.84.5-1.16,1l-5.7,8-5,7.07h1q-3.57-6.22-7.12-12.46L78.65,92.83,76.06,88.3a.61.61,0,0,0-1,.61l7.12,12.47,11.34,19.84,2.59,4.52a.61.61,0,0,0,1,0L106.89,112l1.41-2-.52.3,18.29,1.42,2.62.2a.61.61,0,0,0,.53-.91L119,96.81l-1.47-2-.1.73L127.17,83l1.41-1.81a.61.61,0,0,0-.59-1l-17.76,2.64L81.91,87.05l-6.53,1C74.61,88.14,74.93,89.31,75.7,89.19Z"/><polygon class="cls-18" points="75.54 88.61 109.47 93.8 116.35 95.62 128.69 111.27 75.54 88.61"/><polygon class="cls-17" points="75.54 88.61 109.47 93.8 128.69 111.27 107.78 109.65 75.54 88.61"/><polygon class="cls-16" points="157.22 76.4 201.54 67.9 229.06 104.93 206.4 95.83 188.79 103.11 180.52 85.65 157.22 76.4"/><path class="cls-17" d="M157.39,77l15-2.88,23.82-4.57,5.46-1-.68-.27,9.32,12.54,14.79,19.89q1.69,2.31,3.41,4.6l.68-.89-17.7-7.12-4-1.59c-.48-.19-.92-.49-1.44-.35a26.16,26.16,0,0,0-3.05,1.27l-5.53,2.28-8.9,3.68.69.28q-4-8.49-8.06-17a1.61,1.61,0,0,0-1-.93l-3.39-1.35L165.33,79l-7.94-3.16c-.73-.29-1,.89-.33,1.17l18,7.15,4.11,1.63a6.39,6.39,0,0,0,1,.41c.41.07-.16-.37-.12-.08a4.68,4.68,0,0,0,.52,1.11c.32.66.63,1.32.94,2l2.57,5.42,4.18,8.82a.61.61,0,0,0,.68.28l17-7a3.38,3.38,0,0,0,.44-.18c.26-.2.17.16-.14-.08a2.36,2.36,0,0,0,.52.21L210.13,98l11.11,4.46,7.66,3.08a.61.61,0,0,0,.69-.89l-9.32-12.54-14.79-19.9-3.41-4.6a.67.67,0,0,0-.69-.28l-15,2.89-23.82,4.57-5.47,1C156.3,76,156.62,77.13,157.39,77Z"/><polygon class="cls-16" points="254.68 156.57 283.01 192.79 224.53 203.52 236.18 185.38 218.66 163.86 247.34 168 254.68 156.57"/><path class="cls-17" d="M254.25,157l9.57,12.23,15.26,19.51,3.51,4.48.26-1-19.75,3.62-31.49,5.78-7.24,1.32.69.9L235.24,188l1.47-2.28a.64.64,0,0,0-.1-.74l-15.37-18.89c-.72-.88-1.43-1.76-2.15-2.63l-.59,1,25.17,3.64,3.51.5a.65.65,0,0,0,.69-.27l7.34-11.43c.42-.66-.63-1.27-1.05-.62l-7.34,11.43.69-.28-25.17-3.63-3.52-.51a.62.62,0,0,0-.59,1q7.7,9.44,15.38,18.89l2.14,2.63-.09-.74-10.19,15.86L224,203.21c-.31.48.2,1,.68.89l19.75-3.62,31.49-5.77,7.25-1.33c.5-.09.52-.69.26-1q-4.79-6.11-9.56-12.23l-15.26-19.5-3.51-4.49C254.63,155.53,253.78,156.39,254.25,157Z"/><polygon class="cls-16" points="121.41 174.34 146.7 215.83 202.96 203.68 171.19 192.15 164.31 170.7 146.22 183.27 121.41 174.34"/><path class="cls-17" d="M120.88,174.65q4.29,7,8.56,14,6.83,11.17,13.63,22.35c1,1.7,2.07,3.4,3.11,5.09a.61.61,0,0,0,.68.28L166,212.29l30.19-6.51,7-1.51c.63-.14.52-1,0-1.17L175.26,193l-3.91-1.42.42.43-6-18.76-.87-2.69a.61.61,0,0,0-.89-.37L147,182c-.21.14-.87.44-1,.67s.28-.45.38,0c0,0-.22-.08-.25-.09a30,30,0,0,0-3.33-1.2l-12.37-4.45-8.84-3.18c-.74-.27-1.06.9-.33,1.17l20.2,7.26,4,1.43c.6.22.92.32,1.47-.07l9-6.27,8.71-6.06-.89-.36q1.69,5.26,3.38,10.53l2.37,7.39a23.67,23.67,0,0,0,1.13,3.52c.32.63,1.49.82,2.11,1l5.29,1.92,14.94,5.42,9.86,3.58V203.1l-19.09,4.12-30.19,6.51-7,1.51.69.28-8.57-14q-6.81-11.17-13.63-22.35l-3.1-5.09C121.52,173.37,120.47,174,120.88,174.65Z"/><path class="cls-16" d="M128.69,111.27l25.45,20.84-3.43,8.69a3.38,3.38,0,0,0,1.74,4.31l12,5.42-.13,20.17,12.14-15.45,11.42,4.55a3.82,3.82,0,0,0,5-2.41l2.55-8.14,29.14,6.68L198.4,138.62l2.78-9.37a3.63,3.63,0,0,0-2.23-4.44L188.46,121l.33-17.88L178,116.77l-12.84-4.94a2.4,2.4,0,0,0-3.14,1.32l-3.34,8.35Z"/><path class="cls-17" d="M128.26,111.7l22.26,18.23,3.19,2.61-.16-.59-1.89,4.81-1.18,3a6.91,6.91,0,0,0-.61,2.14c-.1,2.26,1.53,3.41,3.34,4.23l6.21,2.81,4.72,2.13-.31-.52q0,8.83-.11,17.67l0,2.5c0,.48.7.86,1,.43l10.6-13.49,1.54-2-.59.16,10.09,4c1.77.7,3.52,1.26,5.29.11s2-3,2.59-4.81l1.8-5.75-.75.42,25.51,5.85,3.63.83a.61.61,0,0,0,.47-1.11l-23-15.18-3.22-2.12.28.69c.92-3.12,1.95-6.22,2.77-9.36a4.35,4.35,0,0,0-2.89-5.29c-1.76-.66-3.53-1.29-5.29-1.93l-5-1.81.44.59.3-15.63c0-.75,0-1.5,0-2.25,0-.49-.7-.85-1-.43l-9.45,11.92-1.37,1.74.59-.16-10.47-4c-1.35-.51-2.95-1.44-4.41-1-1.79.6-2.27,2.85-2.89,4.41l-2.29,5.73.74-.43L132.6,112l-3.75-1.28c-.74-.26-1.06.92-.32,1.17l26.21,8.94,3.75,1.28a.62.62,0,0,0,.75-.42L161,117.3l1.17-2.92a4.1,4.1,0,0,1,.89-1.69c1.17-1,3.17.2,4.37.66l6.2,2.39,4.19,1.62a.64.64,0,0,0,.6-.16l9.45-11.92,1.37-1.74-1-.43-.3,15.63c0,.75,0,1.5,0,2.25a.61.61,0,0,0,.44.58l9.35,3.41c.38.14.77.26,1.15.42a3.07,3.07,0,0,1,1.8,3.72c-.39,1.5-.89,3-1.33,4.46l-1.44,4.88a.63.63,0,0,0,.28.69l23,15.18,3.21,2.12.47-1.11-25.51-5.84-3.63-.84a.62.62,0,0,0-.74.43c-.47,1.48-.93,3-1.4,4.45l-.88,2.82a5.21,5.21,0,0,1-.9,2c-1.46,1.71-3.35,1-5.07.31l-5.7-2.27-4.33-1.72a.58.58,0,0,0-.59.15l-10.61,13.49-1.53,2,1,.43L165,153l0-2.5a.58.58,0,0,0-.3-.52L155,145.59c-1.45-.65-3.45-1.19-3.84-3a3.9,3.9,0,0,1,.41-2.35l1.08-2.75q1.05-2.62,2.08-5.27a.58.58,0,0,0-.15-.59l-22.26-18.23-3.19-2.61C128.52,110.35,127.66,111.21,128.26,111.7Z"/><path class="cls-17" d="M158.43,139.22c2.67-6.79,5.28-13.61,8-20.39,0-.07.06-.16.1-.23-.19.33.05,0,.21-.12s.43,0,.67,0,.45.18.67.27l4.32,1.75,13.67,5.53,5.46,2.2,1.51.62c.12.05.26.09.37.15l.06,0c-.35-.2.09.13.14.31a1.92,1.92,0,0,1-.2.95l-.6,1.91-2.06,6.53c-1.23,3.89-2.4,7.82-3.7,11.69-.26.8-.76.72-1.46.44l-3.88-1.55c-7.67-3.06-15.39-6-23-9.18l-.19-.08c.38.22-.08-.09-.11-.2a.8.8,0,0,1,0-.66c.73-2.23-2.78-3.19-3.51-1a4.29,4.29,0,0,0,2.61,5.34l.71.28,4.62,1.84,14.6,5.83,5.71,2.28a8.18,8.18,0,0,0,3.53,1,4.3,4.3,0,0,0,3.77-3c.15-.43.27-.88.41-1.31.64-2,1.29-4.08,1.93-6.12l4.11-13a4.42,4.42,0,0,0-2.54-5.77l-3.3-1.33-14.17-5.73L170.82,116a26.36,26.36,0,0,0-2.71-1.08,4.29,4.29,0,0,0-5.1,2.71l-.39,1-2.24,5.72-5.13,13.07-.33.83a1.82,1.82,0,1,0,3.51,1Z"/><path class="cls-19" d="M156.68,138.74l8.09-20.63a2.39,2.39,0,0,1,3.13-1.34L194,127.31a2.37,2.37,0,0,1,1.38,2.93l-6.65,21.07a2.39,2.39,0,0,1-3.17,1.5l-27.5-11A2.38,2.38,0,0,1,156.68,138.74Z"/><path class="cls-20" d="M157.26,138.9l3.65-9.29c1.45-3.69,2.77-7.46,4.35-11.1a1.9,1.9,0,0,1,2.48-1.16l.67.27,4.31,1.75,13.68,5.53,5.45,2.2c1,.41,2.6.75,2.93,1.94.29,1-.5,2.57-.8,3.51-.69,2.18-1.38,4.35-2.06,6.53-1.23,3.9-2.41,7.81-3.7,11.69-.26.8-.71,1.52-1.65,1.6a2.8,2.8,0,0,1-1.3-.31l-3.88-1.55-13.53-5.4c-3.15-1.25-6.38-2.4-9.48-3.78a1.88,1.88,0,0,1-1.12-2.43c.25-.74-.93-1.06-1.17-.32a3.05,3.05,0,0,0,1.77,3.84l.7.28,4.62,1.84,14.6,5.83,5.71,2.28a7.41,7.41,0,0,0,3.21.92c2-.18,2.51-1.88,3-3.47.64-2,1.29-4.08,1.93-6.12l4.11-13c.56-1.77.16-3.49-1.69-4.27-1.09-.47-2.2-.89-3.3-1.34l-14.17-5.73-6.09-2.46a23.53,23.53,0,0,0-2.71-1.08,3.05,3.05,0,0,0-3.61,1.87l-.39,1q-1.11,2.86-2.24,5.72l-5.13,13.07-.33.84C155.81,139.3,157,139.62,157.26,138.9Z"/><path class="cls-21" d="M184.75,145c-3.3-1.42-17.63-6.95-21.05-8.3-1.64,1-4,2.38-6.32,3.75a3.83,3.83,0,0,0,.73.78l27.5,11a1.65,1.65,0,0,0,1.36.1C186.09,149.88,185.45,147.07,184.75,145Z"/><path class="cls-22" d="M173.57,141c4.26,6.52-15.67.12-15.46.21L186,152.33c.35.15-8.87-7.07-4.06-7.8Z"/><path class="cls-23" d="M165.53,135.15c-.83.51-7.13,4.62-8.17,5.33a2.57,2.57,0,0,0,.74.73l26.45,10.55c.26.1.93.39,1.55.63a3.48,3.48,0,0,0,.91-.09c-.32-1.93-2.17-8-2.45-9.55C184.21,142.36,166.57,135.53,165.53,135.15Z"/><path class="cls-24" d="M170.83,119.54c-.17-.05-2.63-1.29-4.42-2.19a3.06,3.06,0,0,1,1.67-.23,5.58,5.58,0,0,1,1.64.42L193.15,127a2.71,2.71,0,0,1,1.68,2.13v0c-1.65-.71-3.13-1.13-3.87-1.38C190.86,127.7,170.83,119.54,170.83,119.54Z"/><path class="cls-25" d="M183.51,145l-20.17-7.79a.54.54,0,0,1-.37-.64l6.17-16a1.94,1.94,0,0,1,2.58-.8l17.55,7.12c1.09.42,2.25,1.1,1.91,2l-5.09,15.3A1.94,1.94,0,0,1,183.51,145Z"/><path class="cls-26" d="M183.59,144.67l-15.38-5.94-3.62-1.41c-.38-.14-1.29-.29-1.3-.78a3,3,0,0,1,.33-.84l.65-1.69q.9-2.35,1.82-4.71l3.17-8.21a1.84,1.84,0,0,1,2.63-.92c.94.37,1.88.76,2.81,1.15l9.69,3.93,3.75,1.52c.91.37,2.86.88,2.75,2a11.34,11.34,0,0,1-.75,2.24c-.52,1.58-1,3.16-1.57,4.73s-1.11,3.35-1.67,5c-.34,1-.61,2.09-1,3.08a1.71,1.71,0,0,1-2.28.81c-.37-.12-.53.46-.16.58a2.27,2.27,0,0,0,3.12-1.51c.43-1.3.87-2.6,1.3-3.9q1.67-5,3.32-10c.37-1.1.58-1.9-.61-2.67A15.25,15.25,0,0,0,188,126l-9.86-4-4.61-1.87a9.62,9.62,0,0,0-2.32-.84c-1.43-.19-2.12.66-2.57,1.82s-1,2.63-1.52,3.94q-1.94,5-3.88,10c-.24.62-.89,1.6-.23,2.16a6.36,6.36,0,0,0,1.81.75l18.17,7,.49.19C183.79,145.39,184,144.81,183.59,144.67Z"/><path class="cls-27" d="M171.59,119.42,190.43,127c-7.09-3-11.23-4.62-15.25-6.57-1.27-.62-.92-.88.48-.37l6.29,2.38-13.07-5.24a31.79,31.79,0,0,1,3,1.56C173.18,119.67,171.44,119.32,171.59,119.42Z"/><path class="cls-28" d="M193.28,127.07,169,117.29a4.4,4.4,0,0,0-2.6.06s-.79,10.24,10.79,14.87c11.41,4.56,17.58-3.26,17.58-3.26A2.8,2.8,0,0,0,193.28,127.07Z"/><polygon class="cls-29" points="166.54 117.71 170.5 113.21 176.38 114.39 178.29 120.07 174.33 124.57 168.46 123.39 166.54 117.71"/><polygon class="cls-30" points="164.94 116.85 172.85 118.98 171.92 110.87 173.42 118.87 180.91 115.23 173.62 119.5 177.45 124.57 173.13 119.87 168.31 125.89 172.61 119.51 164.94 116.85"/><polygon class="cls-31" points="170.35 117.5 173.11 115.87 175.89 117.45 175.92 120.65 173.16 122.27 170.38 120.69 170.35 117.5"/><polygon class="cls-32" points="171.43 119.08 172.41 117.82 173.99 118.04 174.59 119.52 173.6 120.78 172.02 120.56 171.43 119.08"/><polygon class="cls-33" points="165.98 117.22 172.98 119.14 172.13 112.22 173.37 119.06 180.04 115.7 173.44 119.41 177.04 124.09 173.09 119.62 169.06 124.91 172.84 119.44 165.98 117.22"/><polygon class="cls-34" points="175.45 145.91 176.38 143.2 179.19 142.65 181.08 144.82 180.15 147.53 177.33 148.08 175.45 145.91"/><polygon class="cls-35" points="177.1 146.37 177.04 144.94 178.24 144.17 179.51 144.83 179.57 146.25 178.37 147.02 177.1 146.37"/><path class="cls-26" d="M184.68,145.23c.74,2.26,1.38,4.55,1.95,6.86a.3.3,0,0,0,.58-.16q-.84-3.47-1.94-6.86c-.12-.37-.71-.21-.59.16Z"/><path class="cls-26" d="M157.66,140.53c1.78-1.1,3.58-2.18,5.37-3.28a.31.31,0,0,0-.31-.53c-1.78,1.11-3.59,2.18-5.37,3.29-.33.2,0,.73.31.52Z"/><path class="cls-26" d="M190.9,128.29c1.22.29,2.45.52,3.65.88.37.11.53-.47.16-.59-1.2-.35-2.43-.59-3.64-.87-.38-.09-.55.49-.17.58Z"/><path class="cls-26" d="M166.51,117.74c1.19.71,2.37,1.45,3.58,2.13a.3.3,0,0,0,.3-.53c-1.21-.67-2.38-1.41-3.57-2.12-.34-.21-.64.32-.31.52Z"/><polygon class="cls-17" points="201.54 67.9 188.79 103.11 206.4 95.83 201.54 67.9"/><polygon class="cls-17" points="218.66 163.86 249.83 171.95 283.01 192.79 236.18 185.38 218.66 163.86"/><polygon class="cls-17" points="163.9 171.51 146.7 215.83 171.19 192.76 163.9 171.51"/><polygon class="cls-18" points="180.77 85.1 201.14 68.37 189 102.37 180.77 85.1"/><polygon class="cls-18" points="224.47 165.21 247.8 168.71 281.4 191.65 249.83 171.95 224.47 165.21"/><polygon class="cls-18" points="146.22 183.27 163.9 171.51 147.04 214.88 146.22 183.27"/><polygon class="cls-18" points="178.27 117.28 188.19 104.63 181.2 123.04 178.27 117.28"/><polygon class="cls-18" points="131.78 113.03 158.79 122.08 164.1 126.69 131.78 113.03"/><polygon class="cls-18" points="190.82 137.61 197.9 139.03 221.47 154.56 190.82 137.61"/><polygon class="cls-18" points="165.01 150.31 173.11 144.9 165.01 168.93 165.01 150.31"/><polygon class="cls-17" points="188.19 104.63 187.88 121.02 181.2 123.04 188.19 104.63"/><polygon class="cls-17" points="190.82 137.61 195.27 148.64 221.47 154.56 190.82 137.61"/><polygon class="cls-17" points="173.11 144.9 176.3 154.61 165.01 168.93 173.11 144.9"/><polygon class="cls-17" points="131.78 113.03 164.1 126.69 154.64 131.74 131.78 113.03"/><path class="cls-17" d="M177.7,117.44c1.13,1.75,2.26,3.51,3.28,5.34a.62.62,0,0,0,.69.27c2.29-.42,4.6-.81,6.87-1.34.76-.18.44-1.35-.32-1.17-2.28.53-4.58.92-6.87,1.34l.68.28c-1-1.82-2.15-3.58-3.28-5.34-.43-.65-1.48,0-1.05.62Z"/><path class="cls-17" d="M195.9,148.91c-1.45-3.83-3.1-7.59-4.57-11.42l-.74.75c2.67.48,5.35.89,8,1.39.77.14,1.09-1,.33-1.17-2.67-.5-5.36-.91-8-1.39-.41-.07-.93.27-.75.75,1.47,3.82,3.12,7.58,4.57,11.42.27.72,1.45.41,1.17-.33Z"/><path class="cls-17" d="M165,151q4.23-2.76,8.38-5.66l-.83-.22a35.71,35.71,0,0,1,1.53,4.62c.59,1.87,1.15,3.74,1.71,5.62A.61.61,0,0,0,177,155c-.59-2-1.18-3.9-1.79-5.85a36.12,36.12,0,0,0-1.58-4.67.62.62,0,0,0-.83-.22q-4.14,2.91-8.39,5.66c-.65.42,0,1.48.62,1.05Z"/><path class="cls-17" d="M154.58,132.6l9.71-5.57a.62.62,0,0,0,0-1,28.39,28.39,0,0,1-5.06-5c-.48-.61-1.34.26-.86.86a29.53,29.53,0,0,0,5.31,5.17v-1L154,131.55a.61.61,0,0,0,.62,1Z"/></svg>