<svg id="Layer_1" data-name="Layer 1" xmlns="http://www.w3.org/2000/svg" xmlns:xlink="http://www.w3.org/1999/xlink" viewBox="0 0 324.41 343"><defs><style>.cls-1{fill:url(#_336);}.cls-2{fill:url(#_336-2);}.cls-3{fill:#ec8d00;}.cls-4{fill:#f4e64c;}.cls-5{fill:#fab659;}</style><linearGradient id="_336" x1="53.98" y1="211.28" x2="268.26" y2="211.28" gradientUnits="userSpaceOnUse"><stop offset="0" stop-color="#de8d00"/><stop offset="0.41" stop-color="#eaa014"/><stop offset="1" stop-color="#ffc138"/></linearGradient><linearGradient id="_336-2" x1="103.82" y1="126.6" x2="218.42" y2="126.6" xlink:href="#_336"/></defs><title>EGYPTIAN SLOTS</title><path class="cls-1" d="M268.26,232.45,161.12,253.62,54,232.45,78.9,190.11l82.22-21.17,82.22,21.17Z"/><path class="cls-2" d="M218.42,147.77l-57.3,21.17-57.3-21.17,24.92-42.34,32.38-21.17,32.38,21.17Z"/><path class="cls-3" d="M118.91,147.77l24.92-42.34H128.74l-24.92,42.34Z"/><path class="cls-4" d="M276.65,274.79H45.59a9.45,9.45,0,0,1-8.15-14.25L54,232.45H268.26l16.54,28.09A9.45,9.45,0,0,1,276.65,274.79Z"/><path class="cls-4" d="M243.34,190.11H78.9l24.92-42.34h114.6Z"/><path class="cls-5" d="M103.82,147.77,78.9,190.11H94l24.92-42.34Z"/><path class="cls-4" d="M193.5,105.43H128.74l21.14-35.92a13.07,13.07,0,0,1,10.81-6.42h.66a12.4,12.4,0,0,1,2.48.28,13.27,13.27,0,0,1,8.65,6.36Z"/><path class="cls-5" d="M168.65,65.51a12.85,12.85,0,0,0-4.82-2.14,12.4,12.4,0,0,0-2.48-.28h-.66a13.07,13.07,0,0,0-10.81,6.42l-21.14,35.92h15.09L165,69.51A13.18,13.18,0,0,1,168.65,65.51Z"/></svg>