<?xml version="1.0" encoding="utf-8"?>
<!-- Generator: Adobe Illustrator 24.3.0, SVG Export Plug-In . SVG Version: 6.00 Build 0)  -->
<svg version="1.1" id="Layer_1" xmlns="http://www.w3.org/2000/svg" xmlns:xlink="http://www.w3.org/1999/xlink" x="0px" y="0px"
	 viewBox="0 0 324.4 343" style="enable-background:new 0 0 324.4 343;" xml:space="preserve">
<style type="text/css">
	.st0{fill:#1C1207;}
	.st1{fill:#FE7F1E;}
	.st2{fill:#FFA533;}
	.st3{fill:#FFCB47;}
	.st4{fill:#AA4A0F;}
	.st5{fill:#7F2F08;}
</style>
<g>
	<path class="st0" d="M169.7,85.3h-15V70.4c0-19.9,16.2-36.1,36.1-36.1v15c-11.6,0-21,9.4-21,21V85.3z"/>
	<path class="st1" d="M200.3,70.4c-7,0-14,0.8-20.8,2.4v215.5c6.8,1.6,13.8,2.4,20.8,2.4c49.7,0,90.1-40.4,90.1-90.1v-40.1
		C290.4,110.8,250,70.4,200.3,70.4z"/>
	<g>
		<path class="st2" d="M124.1,70.4c7,0,14,0.8,20.8,2.4v215.5c-6.8,1.6-13.8,2.4-20.8,2.4c-49.7,0-90.1-40.4-90.1-90.1v-40.1
			C34,110.8,74.4,70.4,124.1,70.4z"/>
		<path class="st2" d="M252.3,160.5v40.1c0,49.7-40.4,90.1-90.1,90.1l-45.1-110.2l45.1-110.2C211.9,70.4,252.3,110.8,252.3,160.5z"
			/>
	</g>
	<path class="st3" d="M162.2,70.4v220.3c-49.7,0-90.1-40.4-90.1-90.1v-40.1C72.1,110.8,112.5,70.4,162.2,70.4z"/>
	<path class="st4" d="M124.6,175.4c-12.4,0-22.5-10.1-22.5-22.5s10.1-22.5,22.5-22.5s22.5,10.1,22.5,22.5
		C147.2,165.3,137.1,175.4,124.6,175.4z"/>
	<g>
		<path class="st5" d="M199.8,175.4c-12.4,0-22.5-10.1-22.5-22.5s10.1-22.5,22.5-22.5c12.4,0,22.5,10.1,22.5,22.5
			C222.3,165.3,212.2,175.4,199.8,175.4z"/>
		<path class="st5" d="M194.7,194.2v15h-15v-15h-17.5l-17.2,30l17.2,30c33.1,0,60.1-27,60.1-60.1H194.7z"/>
	</g>
	<path class="st4" d="M144.7,194.2v15h-15v-15h-27.5c0,33.1,27,60.1,60.1,60.1v-60.1H144.7z"/>
</g>
</svg>
