<svg id="Layer_1" data-name="Layer 1" xmlns="http://www.w3.org/2000/svg" xmlns:xlink="http://www.w3.org/1999/xlink" viewBox="0 0 324.41 343"><defs><style>.cls-1{fill:#fff;}.cls-2{fill:none;}.cls-3{mask:url(#mask);}.cls-4,.cls-6{fill:#fff133;}.cls-5{fill:#ffc107;}.cls-5,.cls-6{fill-rule:evenodd;}.cls-7{fill:#f36;}</style><mask id="mask" x="32.67" y="34.74" width="260.72" height="274.44" maskUnits="userSpaceOnUse"><g id="mask-2"><rect x="32.67" y="34.74" width="260.72" height="274.44"/><rect id="rect-1" class="cls-1" x="32.67" y="34.74" width="260.72" height="274.44"/></g></mask></defs><rect id="rect-1-2" data-name="rect-1" class="cls-2" x="32.67" y="34.74" width="260.72" height="274.44"/><g class="cls-3"><rect class="cls-4" x="82.35" y="177.51" width="160.48" height="27.87"/><rect class="cls-4" x="163.6" y="177.51" width="79.36" height="27.87"/><path class="cls-5" d="M273.77,104.18l-30.94,81.6H82.35l-30.82-81.6a10,10,0,0,1,3.15-11.45,11.88,11.88,0,0,1,12.45-1.66l47.16,21.85L151.9,62.38a13.1,13.1,0,0,1,10.69-5.2h.88a13.18,13.18,0,0,1,9.81,5.2l37.61,50.54,47.16-21.85a11.64,11.64,0,0,1,12.45,1.66A9.88,9.88,0,0,1,273.77,104.18Z"/><path class="cls-6" d="M177.43,48.56c0,7.44-6.16,13.46-14,13.82h-.88c-8.18,0-14.72-6.26-14.72-13.82s6.67-13.82,14.85-13.82h.88C171.27,35.22,177.43,41.24,177.43,48.56Z"/><ellipse class="cls-4" cx="47.38" cy="84.82" rx="14.71" ry="13.82"/><ellipse class="cls-4" cx="278.55" cy="87.06" rx="14.71" ry="13.82"/><path class="cls-5" d="M242.83,185.78H163.47V57.18a13.18,13.18,0,0,1,9.81,5.2l37.61,50.54,47.16-21.85a11.64,11.64,0,0,1,12.45,1.66,10.26,10.26,0,0,1,3.14,11.45Z"/><path class="cls-6" d="M163.6,62.5V34.74c7.79.36,14,6.5,14,13.82S171.27,62,163.6,62.5Z"/><rect class="cls-7" x="42.23" y="198.3" width="241.48" height="110.89"/><rect class="cls-7" x="163.6" y="198.3" width="120.24" height="110.89"/></g><path class="cls-1" d="M107.75,282.27h-23a4.46,4.46,0,0,1-4.46-4.46v-3.35c0-5.23,5.64-16.56,17.68-25.64H94.8a8.49,8.49,0,0,1-4.61-1.43,4.24,4.24,0,0,0-2.08-.8c-.22,0-1.37.78-2.9,4.59a3.32,3.32,0,0,1-3.1,2.1h-1.8a4.46,4.46,0,0,1-4.46-4.46V233.21a4.46,4.46,0,0,1,4.46-4.46h2a3.57,3.57,0,0,1,3,1.6,1.36,1.36,0,0,0,1.91.35,9.73,9.73,0,0,1,5.35-1.95c1.67,0,3.56,1,5.76,2.21,2.91,1.58,6.21,3.37,9.85,3.37,6.08,0,10.24-5.11,10.28-5.16a1.1,1.1,0,0,1,.81-.42,1.13,1.13,0,0,1,.85.33l4.45,4.46a1.12,1.12,0,0,1,.1,1.47c-.16.2-15.38,19.92-15.38,32.76a19.92,19.92,0,0,0,1.81,9,3.78,3.78,0,0,1-3.35,5.51Z"/><path class="cls-1" d="M173.36,282.27h-23a4.46,4.46,0,0,1-4.46-4.46v-3.35c0-5.23,5.64-16.56,17.68-25.64h-3.19a8.49,8.49,0,0,1-4.61-1.43,4.24,4.24,0,0,0-2.08-.8c-.22,0-1.37.78-2.9,4.59a3.32,3.32,0,0,1-3.1,2.1h-1.8a4.46,4.46,0,0,1-4.46-4.46V233.21a4.46,4.46,0,0,1,4.46-4.46h2a3.57,3.57,0,0,1,3,1.6,1.36,1.36,0,0,0,1.91.35,9.73,9.73,0,0,1,5.35-1.95c1.67,0,3.56,1,5.76,2.21,2.91,1.58,6.21,3.37,9.85,3.37,6.08,0,10.24-5.11,10.28-5.16a1.1,1.1,0,0,1,.81-.42,1.13,1.13,0,0,1,.85.33l4.46,4.46a1.13,1.13,0,0,1,.09,1.47c-.16.2-15.38,19.92-15.38,32.76a19.92,19.92,0,0,0,1.81,9,3.78,3.78,0,0,1-3.35,5.51Z"/><path class="cls-1" d="M235.52,282.27h-23a4.46,4.46,0,0,1-4.46-4.46v-3.35c0-5.23,5.64-16.56,17.69-25.64h-3.19a8.56,8.56,0,0,1-4.62-1.43,4.18,4.18,0,0,0-2.07-.8c-.22,0-1.37.78-2.9,4.59a3.33,3.33,0,0,1-3.11,2.1h-1.8a4.46,4.46,0,0,1-4.45-4.46V233.21a4.46,4.46,0,0,1,4.45-4.46h2a3.58,3.58,0,0,1,3,1.6,1.32,1.32,0,0,0,.86.57,1.36,1.36,0,0,0,1.05-.22,9.73,9.73,0,0,1,5.35-1.95c1.67,0,3.56,1,5.75,2.21,2.92,1.58,6.22,3.37,9.86,3.37,6.08,0,10.23-5.11,10.27-5.16a1.14,1.14,0,0,1,.81-.42,1.11,1.11,0,0,1,.85.33l4.46,4.46a1.1,1.1,0,0,1,.09,1.47c-.15.2-15.37,19.92-15.37,32.76a19.77,19.77,0,0,0,1.81,9,3.78,3.78,0,0,1-3.35,5.51Z"/></svg>