<svg xmlns="http://www.w3.org/2000/svg" xmlns:xlink="http://www.w3.org/1999/xlink" viewBox="0 0 324.41 343"><defs><style>.cls-1{isolation:isolate;}.cls-2{fill:url(#linear-gradient);}.cls-3{fill:url(#linear-gradient-2);}.cls-4{fill:#ffdc64;}.cls-5{fill:url(#_336);}.cls-6{fill:#fff;opacity:0.5;mix-blend-mode:screen;}</style><linearGradient id="linear-gradient" x1="144.49" y1="700.74" x2="144.49" y2="408.78" gradientTransform="translate(13.23 -360.94) scale(1.07)" gradientUnits="userSpaceOnUse"><stop offset="0" stop-color="#b761c6"/><stop offset="1" stop-color="#9c2b7d"/></linearGradient><linearGradient id="linear-gradient-2" x1="144.49" y1="375.58" x2="144.49" y2="598" xlink:href="#linear-gradient"/><linearGradient id="_336" x1="95.1" y1="142.05" x2="183.26" y2="142.05" gradientUnits="userSpaceOnUse"><stop offset="0" stop-color="#de8d00"/><stop offset="0.41" stop-color="#eaa014"/><stop offset="1" stop-color="#ffc138"/></linearGradient></defs><title>POPULAR</title><g class="cls-1"><g id="Layer_1" data-name="Layer 1"><path class="cls-2" d="M292.36,60.46V299.54c0,4-7.53,6-11.93,3.16L172.3,233.5a10,10,0,0,0-9.88,0L54.29,302.7c-4.4,2.82-11.93.82-11.93-3.16V60.46C42.36,53,51.79,47,63.42,47H271.29C282.93,47,292.36,53,292.36,60.46Z"/><path class="cls-3" d="M56.41,60.46c0-2.47,3.15-4.48,7-4.48H271.29c3.87,0,7,2,7,4.48V281.72c0,2.54-4.81,3.82-7.62,2l-88.44-56.6a30.07,30.07,0,0,0-29.76,0L64,283.74c-2.81,1.8-7.62.52-7.62-2Z"/><path class="cls-4" d="M241.63,122.19,193,117.68,173.71,72.85a3.9,3.9,0,0,0-7.16,0l-19.3,44.84-48.61,4.5A3.9,3.9,0,0,0,96.43,129l36.67,32.22-10.73,47.62a3.89,3.89,0,0,0,5.79,4.2l42-24.92,42,24.92a3.89,3.89,0,0,0,5.79-4.2l-10.74-47.62L243.84,129A3.9,3.9,0,0,0,241.63,122.19Z"/><path class="cls-5" d="M173.71,72.85a3.9,3.9,0,0,0-7.16,0l-19.3,44.84-48.61,4.5A3.9,3.9,0,0,0,96.43,129l36.67,32.22-10.73,47.62a3.89,3.89,0,0,0,5.79,4.2l9.37-5.56c1.29-53.37,26.09-91,45.73-112.46Z"/><path class="cls-6" d="M133.66,134.83c4.37,4.73,6,10.31,3.7,12.46s-7.76.06-12.14-4.67-6-10.31-3.7-12.47S129.28,130.09,133.66,134.83Z"/></g></g></svg>