<svg xmlns="http://www.w3.org/2000/svg" xmlns:xlink="http://www.w3.org/1999/xlink" viewBox="0 0 324.41 343"><defs><style>.cls-1{mask:url(#mask);filter:url(#luminosity-noclip-10);}.cls-10,.cls-12,.cls-14,.cls-16,.cls-19,.cls-2,.cls-4,.cls-6,.cls-8{mix-blend-mode:multiply;}.cls-2{fill:url(#linear-gradient);}.cls-3{mask:url(#mask-2);filter:url(#luminosity-noclip-15);}.cls-4{fill:url(#linear-gradient-2);}.cls-5{mask:url(#mask-3);filter:url(#luminosity-noclip-16);}.cls-6{fill:url(#radial-gradient);}.cls-7{mask:url(#mask-4);filter:url(#luminosity-noclip-17);}.cls-8{fill:url(#linear-gradient-3);}.cls-9{mask:url(#mask-5);filter:url(#luminosity-noclip-18);}.cls-10{fill:url(#linear-gradient-4);}.cls-11{mask:url(#mask-6);filter:url(#luminosity-noclip-11);}.cls-12{fill:url(#linear-gradient-5);}.cls-13{mask:url(#mask-7);filter:url(#luminosity-noclip-12);}.cls-14{fill:url(#linear-gradient-6);}.cls-15{mask:url(#mask-8);filter:url(#luminosity-noclip-13);}.cls-16{fill:url(#linear-gradient-7);}.cls-17,.cls-41{fill:#fff;}.cls-18{mask:url(#mask-9);filter:url(#luminosity-noclip-14);}.cls-19{fill:url(#radial-gradient-2);}.cls-20{isolation:isolate;}.cls-21{fill:#3b6ad7;}.cls-22{fill:url(#linear-gradient-8);}.cls-23{mask:url(#mask-10);}.cls-24{fill:url(#linear-gradient-9);}.cls-25{fill:url(#linear-gradient-10);}.cls-26{fill:#0a7eeb;opacity:0.7;}.cls-27{opacity:0.73;fill:url(#linear-gradient-11);}.cls-28{opacity:0.82;fill:url(#linear-gradient-12);}.cls-29{fill:#0027a6;opacity:0.2;}.cls-30{mask:url(#mask-11);}.cls-31,.cls-33,.cls-41,.cls-46{mix-blend-mode:overlay;}.cls-31{fill:url(#linear-gradient-13);}.cls-32{mask:url(#mask-12);}.cls-33{fill:url(#linear-gradient-14);}.cls-34{mask:url(#mask-13);}.cls-35{fill:url(#linear-gradient-15);}.cls-36{mask:url(#mask-14);}.cls-37{mask:url(#mask-15);}.cls-38{opacity:0.52;fill:url(#radial-gradient-3);}.cls-39{fill:#5fc7fc;}.cls-40{fill:#00d4ff;}.cls-41{opacity:0.28;}.cls-42{mask:url(#mask-16);}.cls-43{fill:url(#linear-gradient-16);}.cls-44{mask:url(#mask-17);}.cls-45{fill:url(#radial-gradient-4);}.cls-47{mask:url(#mask-18);}.cls-48{fill:url(#linear-gradient-17);}.cls-49{mask:url(#mask-19);}.cls-50{fill:url(#linear-gradient-18);}.cls-51{filter:url(#luminosity-noclip-9);}.cls-52{filter:url(#luminosity-noclip-8);}.cls-53{filter:url(#luminosity-noclip-7);}.cls-54{filter:url(#luminosity-noclip-6);}.cls-55{filter:url(#luminosity-noclip-5);}.cls-56{filter:url(#luminosity-noclip-4);}.cls-57{filter:url(#luminosity-noclip-3);}.cls-58{filter:url(#luminosity-noclip-2);}.cls-59{filter:url(#luminosity-noclip);}</style><filter id="luminosity-noclip" x="35.19" y="-5795" width="256.3" height="32766" filterUnits="userSpaceOnUse" color-interpolation-filters="sRGB"><feFlood flood-color="#fff" result="bg"/><feBlend in="SourceGraphic" in2="bg"/></filter><mask id="mask" x="35.19" y="-5795" width="256.3" height="32766" maskUnits="userSpaceOnUse"><g class="cls-59"/></mask><linearGradient id="linear-gradient" x1="2978.51" y1="-2667.36" x2="3044.8" y2="-2667.36" gradientTransform="matrix(0.49, 0.85, -1.47, 0.84, -5226.94, -80.62)" gradientUnits="userSpaceOnUse"><stop offset="0"/><stop offset="0.28" stop-color="#838383"/><stop offset="0.55" stop-color="#fff"/><stop offset="1" stop-color="#1c1c1c"/></linearGradient><filter id="luminosity-noclip-2" x="122.71" y="-5795" width="171.94" height="32766" filterUnits="userSpaceOnUse" color-interpolation-filters="sRGB"><feFlood flood-color="#fff" result="bg"/><feBlend in="SourceGraphic" in2="bg"/></filter><mask id="mask-2" x="122.71" y="-5795" width="171.94" height="32766" maskUnits="userSpaceOnUse"><g class="cls-58"/></mask><linearGradient id="linear-gradient-2" x1="1040.91" y1="431.67" x2="1210.8" y2="431.67" gradientTransform="matrix(0.98, 0.22, -0.22, 0.98, -796.85, -454.33)" xlink:href="#linear-gradient"/><filter id="luminosity-noclip-3" x="184.12" y="-5795" width="59.43" height="32766" filterUnits="userSpaceOnUse" color-interpolation-filters="sRGB"><feFlood flood-color="#fff" result="bg"/><feBlend in="SourceGraphic" in2="bg"/></filter><mask id="mask-3" x="184.12" y="-5795" width="59.43" height="32766" maskUnits="userSpaceOnUse"><g class="cls-57"/></mask><radialGradient id="radial-gradient" cx="2734.61" cy="-2266.05" r="75.1" gradientTransform="matrix(0.54, 0.84, -0.84, 0.54, -3195.66, -976.94)" gradientUnits="userSpaceOnUse"><stop offset="0" stop-color="#fff"/><stop offset="0.13" stop-color="#fbfbfb"/><stop offset="0.26" stop-color="#f0f0f0"/><stop offset="0.39" stop-color="#ddd"/><stop offset="0.51" stop-color="#c2c2c2"/><stop offset="0.63" stop-color="#a0a0a0"/><stop offset="0.75" stop-color="#757575"/><stop offset="0.86" stop-color="#434343"/><stop offset="0.98" stop-color="#0b0b0b"/><stop offset="1"/></radialGradient><filter id="luminosity-noclip-4" x="232.59" y="-5795" width="11.29" height="32766" filterUnits="userSpaceOnUse" color-interpolation-filters="sRGB"><feFlood flood-color="#fff" result="bg"/><feBlend in="SourceGraphic" in2="bg"/></filter><mask id="mask-4" x="232.59" y="-5795" width="11.29" height="32766" maskUnits="userSpaceOnUse"><g class="cls-56"/></mask><linearGradient id="linear-gradient-3" x1="1152.22" y1="467.45" x2="1174" y2="467.45" gradientTransform="translate(880.16 -823.99) rotate(98.91)" xlink:href="#linear-gradient"/><filter id="luminosity-noclip-5" x="35.36" y="-5795" width="88.79" height="32766" filterUnits="userSpaceOnUse" color-interpolation-filters="sRGB"><feFlood flood-color="#fff" result="bg"/><feBlend in="SourceGraphic" in2="bg"/></filter><mask id="mask-5" x="35.36" y="-5795" width="88.79" height="32766" maskUnits="userSpaceOnUse"><g class="cls-55"/></mask><linearGradient id="linear-gradient-4" x1="2787.61" y1="-2155.33" x2="2787.61" y2="-2059.07" gradientTransform="matrix(0.54, 0.84, -0.84, 0.54, -3195.66, -976.94)" xlink:href="#linear-gradient"/><filter id="luminosity-noclip-6" x="35.41" y="-5795" width="199.35" height="32766" filterUnits="userSpaceOnUse" color-interpolation-filters="sRGB"><feFlood flood-color="#fff" result="bg"/><feBlend in="SourceGraphic" in2="bg"/></filter><mask id="mask-6" x="35.41" y="-5795" width="199.35" height="32766" maskUnits="userSpaceOnUse"><g class="cls-54"/></mask><linearGradient id="linear-gradient-5" x1="2787.48" y1="-2127.29" x2="2930.14" y2="-2127.29" gradientTransform="matrix(0.54, 0.84, -0.84, 0.54, -3195.66, -976.94)" xlink:href="#linear-gradient"/><filter id="luminosity-noclip-7" x="35.27" y="-5795" width="51.02" height="32766" filterUnits="userSpaceOnUse" color-interpolation-filters="sRGB"><feFlood flood-color="#fff" result="bg"/><feBlend in="SourceGraphic" in2="bg"/></filter><mask id="mask-7" x="35.27" y="-5795" width="51.02" height="32766" maskUnits="userSpaceOnUse"><g class="cls-53"/></mask><linearGradient id="linear-gradient-6" x1="2645.32" y1="-2127.69" x2="2787.48" y2="-2127.69" gradientTransform="matrix(0.54, 0.84, -0.84, 0.54, -3195.66, -976.94)" xlink:href="#linear-gradient"/><filter id="luminosity-noclip-8" x="122.98" y="-5795" width="170.76" height="32766" filterUnits="userSpaceOnUse" color-interpolation-filters="sRGB"><feFlood flood-color="#fff" result="bg"/><feBlend in="SourceGraphic" in2="bg"/></filter><mask id="mask-8" x="122.98" y="-5795" width="170.76" height="32766" maskUnits="userSpaceOnUse"><g class="cls-52"/></mask><linearGradient id="linear-gradient-7" x1="2688.95" y1="-2242.24" x2="2887.11" y2="-2242.24" gradientTransform="matrix(0.54, 0.84, -0.84, 0.54, -3195.66, -976.94)" gradientUnits="userSpaceOnUse"><stop offset="0"/><stop offset="0.12" stop-color="#737373"/><stop offset="1" stop-color="#fff"/></linearGradient><filter id="luminosity-noclip-9" x="186.18" y="-5795" width="107.56" height="32766" filterUnits="userSpaceOnUse" color-interpolation-filters="sRGB"><feFlood flood-color="#fff" result="bg"/><feBlend in="SourceGraphic" in2="bg"/></filter><mask id="mask-9" x="186.18" y="-5795" width="107.56" height="32766" maskUnits="userSpaceOnUse"><g class="cls-51"/></mask><radialGradient id="radial-gradient-2" cx="1056.77" cy="371.21" r="94.58" gradientTransform="matrix(0.98, 0.22, -0.22, 0.98, -796.85, -454.33)" gradientUnits="userSpaceOnUse"><stop offset="0" stop-color="#fff"/><stop offset="0.37" stop-color="#fdfdfd"/><stop offset="0.51" stop-color="#f6f6f6"/><stop offset="0.6" stop-color="#ebebeb"/><stop offset="0.68" stop-color="#dadada"/><stop offset="0.75" stop-color="#c4c4c4"/><stop offset="0.8" stop-color="#a8a8a8"/><stop offset="0.86" stop-color="#888"/><stop offset="0.91" stop-color="#626262"/><stop offset="0.95" stop-color="#373737"/><stop offset="0.99" stop-color="#090909"/><stop offset="1"/></radialGradient><linearGradient id="linear-gradient-8" x1="970.86" y1="305.02" x2="1081.45" y2="305.02" gradientTransform="matrix(0.98, 0.22, -0.22, 0.98, -796.85, -454.33)" gradientUnits="userSpaceOnUse"><stop offset="0.01" stop-color="#49b2fc"/><stop offset="1" stop-color="#4380fa"/></linearGradient><filter id="luminosity-noclip-10" x="35.19" y="190.74" width="256.3" height="81.13" filterUnits="userSpaceOnUse" color-interpolation-filters="sRGB"><feFlood flood-color="#fff" result="bg"/><feBlend in="SourceGraphic" in2="bg"/></filter><mask id="mask-10" x="35.19" y="190.74" width="256.3" height="81.13" maskUnits="userSpaceOnUse"><g class="cls-1"><polygon class="cls-2" points="35.19 271.87 35.63 267.07 291.49 190.74 291.05 195.53 35.19 271.87"/></g></mask><linearGradient id="linear-gradient-9" x1="2978.51" y1="-2667.36" x2="3044.8" y2="-2667.36" gradientTransform="matrix(0.49, 0.85, -1.47, 0.84, -5226.94, -80.62)" gradientUnits="userSpaceOnUse"><stop offset="0" stop-color="#fff"/><stop offset="0.55" stop-color="#fff"/><stop offset="1" stop-color="#fff"/></linearGradient><linearGradient id="linear-gradient-10" x1="1195.39" y1="520.95" x2="1183.99" y2="403.18" gradientTransform="matrix(0.98, 0.22, -0.22, 0.98, -796.85, -454.33)" gradientUnits="userSpaceOnUse"><stop offset="0.01" stop-color="#49b2fc"/><stop offset="1" stop-color="#2130d7"/></linearGradient><linearGradient id="linear-gradient-11" x1="985.95" y1="382.54" x2="1001.15" y2="467.93" gradientTransform="matrix(0.98, 0.22, -0.22, 0.98, -796.85, -454.33)" gradientUnits="userSpaceOnUse"><stop offset="0.01" stop-color="#49e4fc"/><stop offset="0.15" stop-color="#46dbf9"/><stop offset="0.39" stop-color="#3ec2f2"/><stop offset="0.69" stop-color="#319ae6"/><stop offset="1" stop-color="#216ad7"/></linearGradient><linearGradient id="linear-gradient-12" x1="2805.5" y1="-2177.01" x2="2850.01" y2="-2134.67" gradientTransform="matrix(0.54, 0.84, -0.84, 0.54, -3195.66, -976.94)" xlink:href="#linear-gradient-10"/><filter id="luminosity-noclip-11" x="35.41" y="265.09" width="199.35" height="43.92" filterUnits="userSpaceOnUse" color-interpolation-filters="sRGB"><feFlood flood-color="#fff" result="bg"/><feBlend in="SourceGraphic" in2="bg"/></filter><mask id="mask-11" x="35.41" y="265.09" width="199.35" height="43.92" maskUnits="userSpaceOnUse"><g class="cls-11"><polygon class="cls-12" points="35.41 267.06 234.76 309.02 234.13 304.71 40.2 265.1 35.41 267.06"/></g></mask><linearGradient id="linear-gradient-13" x1="2787.48" y1="-2127.29" x2="2930.14" y2="-2127.29" gradientTransform="matrix(0.54, 0.84, -0.84, 0.54, -3195.66, -976.94)" xlink:href="#linear-gradient-9"/><filter id="luminosity-noclip-12" x="35.27" y="68.66" width="51.02" height="198.45" filterUnits="userSpaceOnUse" color-interpolation-filters="sRGB"><feFlood flood-color="#fff" result="bg"/><feBlend in="SourceGraphic" in2="bg"/></filter><mask id="mask-12" x="35.27" y="68.66" width="51.02" height="198.45" maskUnits="userSpaceOnUse"><g class="cls-13"><polygon class="cls-14" points="35.32 267.11 35.27 267.03 81.97 68.66 86.29 71.52 39.2 263.38 35.32 267.11"/></g></mask><linearGradient id="linear-gradient-14" x1="2645.32" y1="-2127.69" x2="2787.48" y2="-2127.69" gradientTransform="matrix(0.54, 0.84, -0.84, 0.54, -3195.66, -976.94)" xlink:href="#linear-gradient-9"/><filter id="luminosity-noclip-13" x="122.98" y="53.58" width="170.76" height="166.72" filterUnits="userSpaceOnUse" color-interpolation-filters="sRGB"><feFlood flood-color="#fff" result="bg"/><feBlend in="SourceGraphic" in2="bg"/></filter><mask id="mask-13" x="122.98" y="53.58" width="170.76" height="166.72" maskUnits="userSpaceOnUse"><g class="cls-15"><polygon class="cls-16" points="293.74 220.31 241.71 196.31 122.98 211.29 186.29 109.13 186.63 53.58 238.21 76.87 293.63 164.06 293.74 220.31"/></g></mask><linearGradient id="linear-gradient-15" x1="2688.95" y1="-2242.24" x2="2887.11" y2="-2242.24" gradientTransform="matrix(0.54, 0.84, -0.84, 0.54, -3195.66, -976.94)" gradientUnits="userSpaceOnUse"><stop offset="0" stop-color="#0056ff"/><stop offset="0.12" stop-color="#249cff"/><stop offset="1" stop-color="#4fffff"/></linearGradient><mask id="mask-14" x="176.82" y="51.77" width="104.94" height="158.17" maskUnits="userSpaceOnUse"><path class="cls-17" d="M224,106.61c11.86-7.57,34.36,4.88,57.79,29.56q-2.85-4.84-6-9.71c-32.71-51.23-73.45-83.68-91-72.48s-5.23,61.81,27.48,113a288.41,288.41,0,0,0,33.19,42.92C217.3,162.17,207.54,117.1,224,106.61Z"/></mask><filter id="luminosity-noclip-14" x="186.18" y="52.59" width="107.56" height="168.01" filterUnits="userSpaceOnUse" color-interpolation-filters="sRGB"><feFlood flood-color="#fff" result="bg"/><feBlend in="SourceGraphic" in2="bg"/></filter><mask id="mask-15" x="186.18" y="52.59" width="107.56" height="168.01" maskUnits="userSpaceOnUse"><g class="cls-18"><polygon class="cls-19" points="293.29 220.1 293.74 220.31 293.29 219.6 293.63 164.06 238.21 76.87 187.09 53.3 186.64 52.59 186.63 53.09 186.18 52.88 186.63 53.58 186.29 109.13 241.71 196.31 292.83 219.89 293.28 220.6 293.29 220.1"/></g></mask><radialGradient id="radial-gradient-3" cx="1056.77" cy="371.21" r="94.58" gradientTransform="matrix(0.98, 0.22, -0.22, 0.98, -796.85, -454.33)" gradientUnits="userSpaceOnUse"><stop offset="0" stop-color="#fff"/><stop offset="0.86" stop-color="#fff"/><stop offset="1" stop-color="#fff"/></radialGradient><filter id="luminosity-noclip-15" x="122.71" y="194.08" width="171.94" height="28.2" filterUnits="userSpaceOnUse" color-interpolation-filters="sRGB"><feFlood flood-color="#fff" result="bg"/><feBlend in="SourceGraphic" in2="bg"/></filter><mask id="mask-16" x="122.71" y="194.08" width="171.94" height="28.2" maskUnits="userSpaceOnUse"><g class="cls-3"><polygon class="cls-4" points="123.25 213.44 122.71 209.14 242.06 194.08 294.65 218.34 292.83 222.28 241.37 198.54 123.25 213.44"/></g></mask><linearGradient id="linear-gradient-16" x1="1040.91" y1="431.67" x2="1210.8" y2="431.67" gradientTransform="matrix(0.98, 0.22, -0.22, 0.98, -796.85, -454.33)" xlink:href="#linear-gradient-9"/><filter id="luminosity-noclip-16" x="184.12" y="53.6" width="59.43" height="143.88" filterUnits="userSpaceOnUse" color-interpolation-filters="sRGB"><feFlood flood-color="#fff" result="bg"/><feBlend in="SourceGraphic" in2="bg"/></filter><mask id="mask-17" x="184.12" y="53.6" width="59.43" height="143.88" maskUnits="userSpaceOnUse"><g class="cls-5"><polygon class="cls-6" points="239.88 197.48 184.12 109.75 188.8 53.59 188.8 53.59 188.46 108.5 243.55 195.15 239.88 197.48"/></g></mask><radialGradient id="radial-gradient-4" cx="2734.61" cy="-2266.05" r="75.1" gradientTransform="matrix(0.54, 0.84, -0.84, 0.54, -3195.66, -976.94)" gradientUnits="userSpaceOnUse"><stop offset="0" stop-color="#fff"/><stop offset="0.97" stop-color="#fff"/><stop offset="1" stop-color="#fff"/></radialGradient><filter id="luminosity-noclip-17" x="232.59" y="196.18" width="11.29" height="112.97" filterUnits="userSpaceOnUse" color-interpolation-filters="sRGB"><feFlood flood-color="#fff" result="bg"/><feBlend in="SourceGraphic" in2="bg"/></filter><mask id="mask-18" x="232.59" y="196.18" width="11.29" height="112.97" maskUnits="userSpaceOnUse"><g class="cls-7"><rect class="cls-8" x="181.78" y="250.49" width="112.92" height="4.34" transform="translate(-28.62 474.89) rotate(-86.47)"/></g></mask><linearGradient id="linear-gradient-17" x1="1152.22" y1="467.45" x2="1174" y2="467.45" gradientTransform="translate(880.16 -823.99) rotate(98.91)" xlink:href="#linear-gradient-9"/><filter id="luminosity-noclip-18" x="35.36" y="209.46" width="88.79" height="59.41" filterUnits="userSpaceOnUse" color-interpolation-filters="sRGB"><feFlood flood-color="#fff" result="bg"/><feBlend in="SourceGraphic" in2="bg"/></filter><mask id="mask-19" x="35.36" y="209.46" width="88.79" height="59.41" maskUnits="userSpaceOnUse"><g class="cls-9"><polygon class="cls-10" points="36.44 268.87 35.36 266.98 121.82 209.46 124.14 213.12 36.44 268.87"/></g></mask><linearGradient id="linear-gradient-18" x1="2787.61" y1="-2155.33" x2="2787.61" y2="-2059.07" gradientTransform="matrix(0.54, 0.84, -0.84, 0.54, -3195.66, -976.94)" xlink:href="#linear-gradient-9"/></defs><g class="cls-20"><g id="Layer_1" data-name="Layer 1"><polygon class="cls-21" points="292.93 277.53 293.63 164.06 238.21 76.87 135.16 29.35 81.97 68.66 35.36 266.98 35.27 267.03 35.34 267.05 35.32 267.11 35.41 267.06 234.76 309.02 292.93 277.53"/><polygon class="cls-22" points="81.97 68.66 135.16 29.35 188.72 54.05 186.29 109.13 81.97 68.66"/><g class="cls-23"><polygon class="cls-24" points="35.19 271.87 35.63 267.07 291.49 190.74 291.05 195.53 35.19 271.87"/></g><polygon class="cls-25" points="234.76 309.02 292.93 277.53 293.29 220.27 241.71 196.31 234.76 309.02"/><polygon class="cls-26" points="234.76 309.02 124.14 213.12 241.71 196.31 234.76 309.02"/><polygon class="cls-27" points="122.98 211.29 81.97 68.66 35.36 266.98 35.27 267.03 35.34 267.05 35.32 267.11 35.41 267.06 122.98 211.29"/><polygon class="cls-28" points="122.98 211.29 35.36 266.98 35.27 267.03 35.34 267.05 35.32 267.11 35.41 267.06 234.76 309.02 122.98 211.29"/><polygon class="cls-29" points="122.98 211.29 81.97 68.66 35.36 266.98 35.27 267.03 35.34 267.05 35.32 267.11 35.41 267.06 234.76 309.01 122.98 211.29"/><g class="cls-30"><polygon class="cls-31" points="35.41 267.06 234.76 309.02 234.13 304.71 40.2 265.1 35.41 267.06"/></g><g class="cls-32"><polygon class="cls-33" points="35.32 267.11 35.27 267.03 81.97 68.66 86.29 71.52 39.2 263.38 35.32 267.11"/></g><g class="cls-34"><polygon class="cls-35" points="293.74 220.31 241.71 196.31 122.98 211.29 186.29 109.13 186.63 53.58 238.21 76.87 293.63 164.06 293.74 220.31"/></g><g class="cls-36"><g class="cls-37"><polygon class="cls-38" points="293.29 220.1 293.74 220.31 293.29 219.6 293.63 164.06 238.21 76.87 187.09 53.3 186.64 52.59 186.63 53.09 186.18 52.88 186.63 53.58 186.29 109.13 241.71 196.31 292.83 219.89 293.28 220.6 293.29 220.1"/></g></g><polygon class="cls-39" points="233.33 310.65 121.07 212.5 79.88 69.26 84.05 68.06 124.89 210.08 236.19 307.38 233.33 310.65"/><rect class="cls-40" x="0.6" y="198.53" width="165.52" height="4.34" transform="matrix(0.57, -0.82, 0.82, 0.57, -129.23, 155.58)"/><polygon class="cls-41" points="293.74 220.31 241.71 196.31 122.98 211.29 186.29 109.13 186.63 53.58 238.21 76.87 293.63 164.06 293.74 220.31"/><g class="cls-42"><polygon class="cls-43" points="123.25 213.44 122.71 209.14 242.06 194.08 294.65 218.34 292.83 222.28 241.37 198.54 123.25 213.44"/></g><g class="cls-44"><polygon class="cls-45" points="239.88 197.48 184.12 109.75 188.8 53.59 188.8 53.59 188.46 108.5 243.55 195.15 239.88 197.48"/></g><g class="cls-46"><g class="cls-47"><rect class="cls-48" x="181.78" y="250.49" width="112.92" height="4.34" transform="translate(-28.62 474.89) rotate(-86.47)"/></g></g><polygon class="cls-17" points="81.97 68.66 186.29 109.13 122.98 211.29 81.97 68.66"/><g class="cls-49"><polygon class="cls-50" points="36.44 268.87 35.36 266.98 121.82 209.46 124.14 213.12 36.44 268.87"/></g><path class="cls-17" d="M234.8,103.37s1.46,10.27,2.57,25.67c.29,3.85.6,8,.82,12.43s.53,9.06.68,13.88.42,9.79.48,14.84.19,10.2.29,15.33v15.33c.05,5.06-.14,10-.2,14.86-.2,9.63-.55,18.62-1,26.33-.82,15.42-2.09,25.71-2.09,25.71s-1.47-10.26-2.58-25.66c-.6-7.7-1.12-16.69-1.49-26.32-.15-4.81-.44-9.79-.49-14.84s-.19-10.2-.28-15.33V170.27c0-5.06.15-10,.21-14.85s.26-9.48.42-13.89.37-8.6.59-12.45C233.54,113.66,234.8,103.37,234.8,103.37Z"/><path class="cls-17" d="M183.28,185.56s1.7-.35,4.67-.81,7.23-1,12.33-1.52,11.05-.93,17.42-1.27,13.18-.46,20-.47,13.6.16,20,.46,12.33.73,17.43,1.27,9.35,1.07,12.32,1.53,4.68.81,4.68.81-1.7.36-4.68.81-7.22,1-12.32,1.53-11.05.94-17.43,1.27-13.17.45-20,.46-13.6-.17-20-.47-12.32-.74-17.42-1.27-9.35-1.07-12.33-1.52S183.28,185.56,183.28,185.56Z"/></g></g></svg>