<svg xmlns="http://www.w3.org/2000/svg" xmlns:xlink="http://www.w3.org/1999/xlink" viewBox="0 0 324.41 343"><defs><style>.cls-1{isolation:isolate;}.cls-2{fill:url(#_49);}.cls-3{fill:url(#_49-2);}.cls-4{fill:url(#_21);}.cls-5{fill:url(#_155);}.cls-6,.cls-9{mix-blend-mode:screen;}.cls-6{fill:url(#_155-2);}.cls-7{fill:url(#_168);}.cls-8{fill:url(#_41);}.cls-9{opacity:0.75;}.cls-10{fill:#fff;}</style><linearGradient id="_49" x1="64.22" y1="145.4" x2="116.21" y2="145.4" gradientUnits="userSpaceOnUse"><stop offset="0" stop-color="#ff5c5c"/><stop offset="0.26" stop-color="#f53d56"/><stop offset="0.55" stop-color="#eb2150"/><stop offset="0.81" stop-color="#e5104c"/><stop offset="1" stop-color="#e30a4b"/></linearGradient><linearGradient id="_49-2" x1="88.98" y1="269.61" x2="214.31" y2="269.61" xlink:href="#_49"/><linearGradient id="_21" x1="102.35" y1="177.15" x2="264.22" y2="177.15" gradientUnits="userSpaceOnUse"><stop offset="0" stop-color="#8c0515"/><stop offset="1" stop-color="#bc1a27"/></linearGradient><linearGradient id="_155" x1="108.56" y1="280.11" x2="161.88" y2="49.15" gradientUnits="userSpaceOnUse"><stop offset="0" stop-color="#c40404"/><stop offset="0.37" stop-color="#d71815"/><stop offset="1" stop-color="#ff4338"/></linearGradient><linearGradient id="_155-2" x1="208.47" y1="197.29" x2="56.08" y2="90.58" xlink:href="#_155"/><linearGradient id="_168" x1="64.22" y1="170.42" x2="250.36" y2="170.42" gradientUnits="userSpaceOnUse"><stop offset="0" stop-color="#feffb5"/><stop offset="0.51" stop-color="#ffd717"/><stop offset="1" stop-color="#f08d1e"/></linearGradient><linearGradient id="_41" x1="68.41" y1="56.28" x2="238.6" y2="252.06" gradientUnits="userSpaceOnUse"><stop offset="0" stop-color="#ff9f99"/><stop offset="1" stop-color="#ff5348"/></linearGradient></defs><title>PROGRESSIVE SLOTS</title><g class="cls-1"><g id="Layer_1" data-name="Layer 1"><polygon class="cls-2" points="64.22 140.82 78.08 149.97 116.21 149.97 102.35 140.82 64.22 140.82"/><path class="cls-3" d="M125.54,244.85a162.57,162.57,0,0,0-2,20.93c-.08,2.33-2.48,4.19-5.43,4.19H102.84L89,285.23l13.86,9.15H214.31l-13.86-9.15Z"/><path class="cls-4" d="M229.1,155.6q2-3.61,5.94-10.17,29.18-48.25,29.18-69.63c0-1.83,0-3.21-.08-4.13s-.14-1.78-.25-2.59L250,59.93l-15.49,9.15v2.41c0,3.45-1,6.1-2.88,7.93s-4.7,2.76-8.33,2.76q-4.94,0-26-8.7t-37.84-8.71q-14.5,0-25.31,6.55A47.75,47.75,0,0,0,119,86.54c-.65,1-2.57.62-2.55-.5l.25-17L102.8,59.93l-.45,80.89L116.21,150q.89-13.49,5.56-20.13,5.78-8.19,18.8-8.19,4,0,18.63,3a129.81,129.81,0,0,0,25.72,3,60,60,0,0,0,14.84-1.89A83.65,83.65,0,0,0,210,122.42c1.26-.51,2.54.64,1.73,1.56-7.12,8-53.34,64.36-40.42,150.54l29.15,10.71,13.86,9.15V270l-13.86-9.15s-6.68,7.14-6.58,4.71A210.52,210.52,0,0,1,201,217.82Q208.33,191.29,229.1,155.6Z"/><path class="cls-5" d="M214.47,132.23c22.25-36.79,27.63-55.29,28-64.47H227.87a16.75,16.75,0,0,1-4.66,8.17c-3.42,3.27-8,4.93-13.74,4.93-3.38,0-9.23-1.12-29-9.3-13-5.38-24.72-8.11-34.84-8.11-8.29,0-15.24,1.78-21.25,5.42-5.47,3.32-10.1,8.42-14.14,15.61A8.18,8.18,0,0,1,95,80.54V67.76H72.05V133H95.33c1.12-7,3.16-12.54,6.18-16.82,3.7-5.25,11.07-11.51,25.2-11.51,2.2,0,6.49.36,20.2,3.18a123.21,123.21,0,0,0,24.15,2.86A51.87,51.87,0,0,0,184,109a78.51,78.51,0,0,0,13.8-5,7.75,7.75,0,0,1,3.31-.74,7.86,7.86,0,0,1,6.91,4.13,8,8,0,0,1-1.06,8.92c-7.43,8.8-18.58,20.17-33.14,33.78-14.14,13.21-23.79,23-28.69,29.26A130.89,130.89,0,0,0,124,218a139.46,139.46,0,0,0-6.53,39.94c-.17,6-5.39,10.76-11.9,10.76H96.82v8.74h95.8v-8.74H184a12.32,12.32,0,0,1-8.87-3.66,10.59,10.59,0,0,1-3-7.78,220,220,0,0,1,7.45-50.63c5-18.23,14.74-39.76,28.84-64C209.79,140.09,211.77,136.7,214.47,132.23Z"/><path class="cls-6" d="M226.62,71.2a16.26,16.26,0,0,1-3.41,4.73c-3.42,3.27-8,4.93-13.74,4.93-3.38,0-9.23-1.12-29-9.3-13-5.38-24.72-8.11-34.84-8.11-8.29,0-15.24,1.78-21.25,5.42-5.47,3.32-10.1,8.42-14.14,15.61A8.18,8.18,0,0,1,95,80.54V67.76H72.05v54.85a14.35,14.35,0,0,0,9.34-8.84,31.31,31.31,0,0,1,3.8-7.39c3.7-5.25,11.07-11.51,25.2-11.51,2.2,0,6.49.36,20.2,3.18a123.12,123.12,0,0,0,24.15,2.85c4.27,0,16.22-1,20.53-2,8.52-1.93,13.87-3,16.38-1.28,2.88,1.94,1,6.43-1.06,8.92l-.54.64q3.8-1.35,7.7-3.16a7.75,7.75,0,0,1,3.31-.74,7.86,7.86,0,0,1,6.91,4.13,8,8,0,0,1-1.06,8.92c-7.43,8.8-18.58,20.17-33.14,33.78-14.14,13.21-23.79,23-28.69,29.26A130.89,130.89,0,0,0,124,218a139.46,139.46,0,0,0-6.53,39.94,11,11,0,0,1-6.81,9.71H156.5c2.63,0,6.22-.11,1.72-8.82-8.34-16.17-1.15-38.6,4.32-53.79,7.23-20.06,24.08-45.54,38.18-69.77,1.37-2.5,3.35-5.89,6.05-10.36,7.61-12.58,13.24-23,17.38-31.68C228.65,83.77,230.84,75,226.62,71.2Z"/><path class="cls-7" d="M250.28,62.51c-.06-.91-.14-1.78-.25-2.58H220.68v2.41q0,5.18-2.88,7.93c-1.93,1.84-4.7,2.76-8.33,2.76q-5,0-26-8.71t-37.83-8.7q-14.52,0-25.31,6.55c-6.88,4.17-12.32,10.31-16.91,18.46a.33.33,0,0,1-.3.16c-.17,0-.34-.09-.34-.26V59.93H64.22v80.89h38.13q.89-13.5,5.56-20.14,5.78-8.18,18.8-8.18,3.95,0,18.63,3a129.9,129.9,0,0,0,25.72,3,59.38,59.38,0,0,0,14.83-1.9,86.16,86.16,0,0,0,15.17-5.51Q190.19,124,168.42,144.38t-29.51,30.16q-15.33,19.83-22.34,40.94-6.28,18.92-6.93,42.19c0,1.75-1.86,3.15-4.07,3.15H89v24.41H200.45V260.82H184c-2.3,0-4.14-1.51-4.08-3.33a211.13,211.13,0,0,1,7.17-48.82q7.34-26.53,28.11-62.22,2-3.62,5.94-10.17Q250.36,88,250.36,66.65C250.36,64.81,250.33,63.44,250.28,62.51Zm-78.15,194.7a10.59,10.59,0,0,0,3,7.78,12.32,12.32,0,0,0,8.87,3.66h4.21a4.37,4.37,0,0,1,4.37,4.37h0a4.37,4.37,0,0,1-4.37,4.37H101.19A4.36,4.36,0,0,1,96.82,273h0a4.37,4.37,0,0,1,4.37-4.37h4.38c6.51,0,11.73-4.72,11.9-10.76A139.46,139.46,0,0,1,124,218a130.89,130.89,0,0,1,21.08-38.58c4.9-6.21,14.55-16.05,28.69-29.26,14.56-13.61,25.71-25,33.14-33.78a8,8,0,0,0,1.06-8.92,7.86,7.86,0,0,0-6.91-4.13,7.75,7.75,0,0,0-3.31.74,78.51,78.51,0,0,1-13.8,5,51.87,51.87,0,0,1-12.89,1.66,123.21,123.21,0,0,1-24.15-2.86c-13.71-2.82-18-3.18-20.2-3.18-14.13,0-21.5,6.26-25.2,11.51a34.68,34.68,0,0,0-5,11A7.82,7.82,0,0,1,89,133H79.86a7.81,7.81,0,0,1-7.81-7.81V75.57a7.81,7.81,0,0,1,7.81-7.81h7.31A7.82,7.82,0,0,1,95,75.57v5a8.18,8.18,0,0,0,15.3,3.94c4-7.19,8.67-12.29,14.14-15.61,6-3.64,13-5.42,21.25-5.42,10.12,0,21.84,2.73,34.84,8.11,19.73,8.18,25.58,9.3,29,9.3,5.7,0,10.32-1.66,13.74-4.93a16,16,0,0,0,3.06-4,7.86,7.86,0,0,1,6.89-4.15h.1a7.82,7.82,0,0,1,7.53,9.87c-2.92,10.86-10.19,27.93-26.32,54.6-2.7,4.47-4.68,7.86-6.05,10.37-14.1,24.22-23.8,45.75-28.84,64A220,220,0,0,0,172.13,257.21Z"/><path class="cls-8" d="M250.28,62.51c-.06-.91-.14-1.78-.25-2.58H220.68v2.41q0,5.18-2.88,7.93c-1.93,1.84-4.7,2.76-8.33,2.76q-5,0-26-8.71t-37.83-8.7q-14.52,0-25.31,6.55c-6.88,4.17-12.32,10.31-16.91,18.46a.33.33,0,0,1-.3.16c-.17,0-.34-.09-.34-.26V59.93H64.22v80.89h38.13q.89-13.5,5.56-20.14,5.78-8.18,18.8-8.18,3.95,0,18.63,3a129.9,129.9,0,0,0,25.72,3,59.38,59.38,0,0,0,14.83-1.9,86.16,86.16,0,0,0,15.17-5.51Q190.19,124,168.42,144.38t-29.51,30.16q-15.33,19.83-22.34,40.94-6.28,18.92-6.93,42.19c0,1.75-1.86,3.15-4.07,3.15H89v24.41H200.45V260.82H184c-2.3,0-4.14-1.51-4.08-3.33a211.13,211.13,0,0,1,7.17-48.82q7.34-26.53,28.11-62.22,2-3.62,5.94-10.17Q250.36,88,250.36,66.65C250.36,64.81,250.33,63.44,250.28,62.51Zm-78.15,194.7a10.59,10.59,0,0,0,3,7.78,12.32,12.32,0,0,0,8.87,3.66h4.21a4.37,4.37,0,0,1,4.37,4.37h0a4.37,4.37,0,0,1-4.37,4.37H101.19A4.36,4.36,0,0,1,96.82,273h0a4.37,4.37,0,0,1,4.37-4.37h4.38c6.51,0,11.73-4.72,11.9-10.76A139.46,139.46,0,0,1,124,218a130.89,130.89,0,0,1,21.08-38.58c4.9-6.21,14.55-16.05,28.69-29.26,14.56-13.61,25.71-25,33.14-33.78a8,8,0,0,0,1.06-8.92,7.86,7.86,0,0,0-6.91-4.13,7.75,7.75,0,0,0-3.31.74,78.51,78.51,0,0,1-13.8,5,51.87,51.87,0,0,1-12.89,1.66,123.21,123.21,0,0,1-24.15-2.86c-13.71-2.82-18-3.18-20.2-3.18-14.13,0-21.5,6.26-25.2,11.51a34.68,34.68,0,0,0-5,11A7.82,7.82,0,0,1,89,133H79.86a7.81,7.81,0,0,1-7.81-7.81V75.57a7.81,7.81,0,0,1,7.81-7.81h7.31A7.82,7.82,0,0,1,95,75.57v5a8.18,8.18,0,0,0,15.3,3.94c4-7.19,8.67-12.29,14.14-15.61,6-3.64,13-5.42,21.25-5.42,10.12,0,21.84,2.73,34.84,8.11,19.73,8.18,25.58,9.3,29,9.3,5.7,0,10.32-1.66,13.74-4.93a16,16,0,0,0,3.06-4,7.86,7.86,0,0,1,6.89-4.15h.1a7.82,7.82,0,0,1,7.53,9.87c-2.92,10.86-10.19,27.93-26.32,54.6-2.7,4.47-4.68,7.86-6.05,10.37-14.1,24.22-23.8,45.75-28.84,64A220,220,0,0,0,172.13,257.21Z"/><g class="cls-9"><path class="cls-10" d="M77.39,73C76,73,74.94,80.7,74.78,83.56c-.38,7,0,21,0,28,0,8.1,1.17,13.26,2.61,13.26s2.65-4.08,2.82-12.68c.14-7,.18-21.6-.2-28.56C79.85,80.7,78.84,73,77.39,73Z"/><path class="cls-10" d="M173.19,71.58c-12.66-4.83-23.41-7-33.33-5.39-12.63,2-23.19,10.06-26.92,20.56-.48,1.36-.45,3.69.39,4.08,2,.9,3.89-1.4,4.53-2.33,5.13-7.55,12-14.15,22.81-15.85,8.94-1.41,17.75.28,30.51,3.76,1.39.38,16.43,4.9,17,3.56S180.41,74.34,173.19,71.58Z"/><path class="cls-10" d="M184,146.81c-1.75-1.11-5.3,1.71-10.84,7.2-15,14.83-31.56,33-41.39,54.71a124.33,124.33,0,0,0-10.52,46c-.06,1.44-.27,6.59,1.9,6.59,2.45,0,3.14-5,3.32-6.36a154.65,154.65,0,0,1,12.67-44.78c9.49-21,23.09-38,37.7-52.49C177.86,156.7,186.21,148.2,184,146.81Z"/></g></g></g></svg>