<svg xmlns="http://www.w3.org/2000/svg" xmlns:xlink="http://www.w3.org/1999/xlink" viewBox="0 0 324.41 343"><defs><style>.cls-1{isolation:isolate;}.cls-2{fill:url(#_21);}.cls-11,.cls-12,.cls-13,.cls-20,.cls-3,.cls-4,.cls-5{mix-blend-mode:screen;}.cls-3{fill:url(#_21-2);}.cls-4{fill:url(#_24);}.cls-5{fill:url(#_24-2);}.cls-21,.cls-6,.cls-9{fill:#fff;}.cls-6{opacity:0.75;}.cls-7{fill:#307c16;}.cls-14,.cls-15,.cls-18,.cls-19,.cls-8{mix-blend-mode:multiply;}.cls-8{fill:url(#_35);}.cls-16,.cls-9{opacity:0.29;}.cls-10{fill:url(#_21-3);}.cls-11{fill:url(#_21-4);}.cls-12{fill:url(#_29);}.cls-13{fill:url(#_24-3);}.cls-14{fill:url(#_35-2);}.cls-15{fill:url(#_35-3);}.cls-16{fill:#d0d823;}.cls-17{fill:#3a961b;}.cls-18{fill:url(#_35-4);}.cls-19{fill:url(#_30);}.cls-20{opacity:0.6;}</style><linearGradient id="_21" x1="152.8" y1="274.29" x2="276.19" y2="274.29" gradientUnits="userSpaceOnUse"><stop offset="0" stop-color="#8c0515"/><stop offset="1" stop-color="#bc1a27"/></linearGradient><linearGradient id="_21-2" x1="221.21" y1="306.12" x2="209.04" y2="229.27" xlink:href="#_21"/><linearGradient id="_24" x1="214.49" y1="299.62" x2="214.49" y2="251.91" gradientUnits="userSpaceOnUse"><stop offset="0.29" stop-color="#ab0719"/><stop offset="0.42" stop-color="#b00d1d"/><stop offset="0.58" stop-color="#c01e2a"/><stop offset="0.77" stop-color="#d93b3e"/><stop offset="0.98" stop-color="#fc625a"/><stop offset="1" stop-color="#ff655c"/></linearGradient><linearGradient id="_24-2" x1="186.53" y1="242.73" x2="242.45" y2="242.73" xlink:href="#_24"/><linearGradient id="_35" x1="218" y1="248.4" x2="218" y2="107.14" gradientUnits="userSpaceOnUse"><stop offset="0.36" stop-color="#fff"/><stop offset="0.46" stop-color="#fdfefc"/><stop offset="0.55" stop-color="#f8faf1"/><stop offset="0.63" stop-color="#f0f4e0"/><stop offset="0.71" stop-color="#e4ecc7"/><stop offset="0.78" stop-color="#d5e1a8"/><stop offset="0.85" stop-color="#c2d481"/><stop offset="0.92" stop-color="#acc552"/><stop offset="0.99" stop-color="#93b31e"/><stop offset="1" stop-color="#8eb015"/></linearGradient><linearGradient id="_21-3" x1="85.67" y1="252.61" x2="116.22" y2="152.68" xlink:href="#_21"/><linearGradient id="_21-4" x1="91" y1="242.24" x2="116.92" y2="157.45" xlink:href="#_21"/><linearGradient id="_29" x1="96.72" y1="171.1" x2="99.05" y2="237.88" gradientUnits="userSpaceOnUse"><stop offset="0" stop-color="#ff655c"/><stop offset="0.02" stop-color="#fc625a"/><stop offset="0.23" stop-color="#d93b3e"/><stop offset="0.42" stop-color="#c01e2a"/><stop offset="0.58" stop-color="#b00d1d"/><stop offset="0.71" stop-color="#ab0719"/></linearGradient><linearGradient id="_24-3" x1="104.59" y1="180.74" x2="144.79" y2="180.74" xlink:href="#_24"/><linearGradient id="_35-2" x1="113.8" y1="149" x2="233.73" y2="149" xlink:href="#_35"/><linearGradient id="_35-3" x1="235.28" y1="98.79" x2="241.73" y2="110.93" xlink:href="#_35"/><linearGradient id="_35-4" x1="-103.2" y1="290.37" x2="38.41" y2="290.37" gradientTransform="matrix(0.99, -0.13, 0.13, 0.99, 168.5, -195.37)" xlink:href="#_35"/><linearGradient id="_30" x1="-103.2" y1="275.23" x2="38.41" y2="275.23" gradientTransform="matrix(0.99, -0.13, 0.13, 0.99, 168.5, -195.37)" gradientUnits="userSpaceOnUse"><stop offset="0" stop-color="#8eb015"/><stop offset="0.01" stop-color="#93b31e"/><stop offset="0.08" stop-color="#acc552"/><stop offset="0.15" stop-color="#c2d481"/><stop offset="0.22" stop-color="#d5e1a8"/><stop offset="0.29" stop-color="#e4ecc7"/><stop offset="0.37" stop-color="#f0f4e0"/><stop offset="0.45" stop-color="#f8faf1"/><stop offset="0.54" stop-color="#fdfefc"/><stop offset="0.64" stop-color="#fff"/></linearGradient></defs><title>SLOTS</title><g class="cls-1"><g id="Layer_1" data-name="Layer 1"><path class="cls-2" d="M270.72,248.75a33.12,33.12,0,0,0-31.86-18.48,29.31,29.31,0,0,0-5.45.86,72.29,72.29,0,0,1-37.84,0,29,29,0,0,0-5.45-.86,33.13,33.13,0,0,0-31.86,18.48c-3,6-5.46,12.54-5.46,17.82,0,28.61,27.62,51.81,61.69,51.81s61.7-23.2,61.7-51.81C276.19,261.29,273.7,254.71,270.72,248.75Z"/><path class="cls-3" d="M263,248a28.74,28.74,0,0,0-27.5-15.49,25.87,25.87,0,0,0-4.7.71,64.1,64.1,0,0,1-32.66,0,25.74,25.74,0,0,0-4.7-.71A28.71,28.71,0,0,0,166,248c-2.57,5-4.72,10.52-4.72,14.94,0,24,23.84,43.45,53.24,43.45s53.24-19.45,53.24-43.45C267.73,258.49,265.58,253,263,248Zm-48.53.43c-12.36,0-19-9.28-16.9-10.85,1.81-1.79,8.78,1.85,16.9,1.61,8.12.24,15.09-3.4,16.9-1.61C233.47,239.12,226.86,248.38,214.49,248.4Z"/><path class="cls-4" d="M248.65,262c-3.63-6.49-11.23-10.51-19.35-10a19.43,19.43,0,0,0-3.31.46,49.08,49.08,0,0,1-23,0,19.57,19.57,0,0,0-3.31-.46c-8.13-.52-15.72,3.5-19.36,10-1.81,3.23-3.32,6.78-3.32,9.64,0,15.48,16.78,28,37.48,28s37.49-12.55,37.49-28C252,268.73,250.46,265.18,248.65,262Z"/><path class="cls-5" d="M241.84,234.35c-2.93-2.9-14.21,3-27.35,2.61-13.13.38-24.41-5.51-27.35-2.61-3.36,2.54,7.34,17.53,27.35,17.56S245.2,236.89,241.84,234.35ZM214.49,248.4c-12.36,0-19-9.28-16.9-10.85,1.81-1.79,8.78,1.85,16.9,1.61,8.12.24,15.09-3.4,16.9-1.61C233.47,239.12,226.86,248.38,214.49,248.4Z"/><path class="cls-6" d="M189.31,248.66c-1.58,2.41-5.66,2.53-9.12.27s-5-6.05-3.4-8.46,5.66-2.53,9.12-.27S190.89,246.25,189.31,248.66Z"/><path class="cls-6" d="M171.67,280.86c-3.45,1.58-11.57-10.57-6.82-22.72,4.88-11.69,12.86-9.52,12.31-5.12.07,4.58-2.14,8.29-3.2,14.11C172.45,272.93,174.85,280.14,171.67,280.86Z"/><path class="cls-7" d="M208.62,202c-1.8-25.16,1.17-61.33,25.62-90.81l-4.94-4.09c-20.46,24.67-29.81,57.71-27.06,95.55a199.77,199.77,0,0,0,6,36c1,3.89,2,7.09,2.77,9.45a22.6,22.6,0,0,0,3.46.26,23.6,23.6,0,0,0,3.32-.23c-.66-1.93-1.66-5-2.76-9A194.73,194.73,0,0,1,208.62,202Z"/><path class="cls-8" d="M208.62,202c-1.8-25.16,1.17-61.33,25.62-90.81l-4.94-4.09c-20.46,24.67-29.81,57.71-27.06,95.55a199.77,199.77,0,0,0,6,36c1,3.89,2,7.09,2.77,9.45a22.6,22.6,0,0,0,3.46.26,23.6,23.6,0,0,0,3.32-.23c-.66-1.93-1.66-5-2.76-9A194.73,194.73,0,0,1,208.62,202Z"/><path class="cls-9" d="M206.22,201.12c-1.08-14.91-.47-33.69,5.3-52.65,4-13,8.28-27.3,4.38-19.43C205.45,150.13,201,175.14,203,202.69a200.66,200.66,0,0,0,6,36c1,3.89,2,7.09,2.77,9.45,1.1.17,1.92-5.89.82-9.89A194.21,194.21,0,0,1,206.22,201.12Z"/><path class="cls-6" d="M204.92,185.25c.17-4.11.41-8.22.81-12.31.43-4.3,1.57-8.7,1.46-13a.53.53,0,0,0-1-.14c-1.43,3.79-2.94,21.6-3,26.23a153.25,153.25,0,0,0,1.9,26.29c.12.76,1.26.43,1.16-.32A153.28,153.28,0,0,1,204.92,185.25Z"/><path class="cls-10" d="M153.06,231a33.14,33.14,0,0,0-7.18-36.12,29.18,29.18,0,0,0-4.24-3.52,72.43,72.43,0,0,1-25-28.41,28.87,28.87,0,0,0-2.95-4.66,33.15,33.15,0,0,0-34.92-11.71c-6.45,1.71-13,4.18-17,7.67-21.48,18.9-20.65,55,1.86,80.54s58.18,31,79.66,12.09C147.25,243.37,150.54,237.16,153.06,231Z"/><path class="cls-11" d="M142,193.81a25.76,25.76,0,0,0-3.65-3.06,64,64,0,0,1-21.57-24.51,25.69,25.69,0,0,0-2.57-4,28.74,28.74,0,0,0-29.79-10.4c-5.46,1.38-11,3.4-14.34,6.33-18,15.85-16.87,46.6,2.56,68.67S122.43,254,140.45,238.1c3.32-2.93,6-8.18,8.1-13.42A28.75,28.75,0,0,0,142,193.81Zm-25.85-5.27c-8.16-9.29-5.57-20.38-3-19.86,2.54.19,4.41,7.82,9.95,13.76,5.19,6.25,12.52,9.08,12.38,11.62C135.67,196.66,124.35,197.81,116.17,188.54Z"/><path class="cls-12" d="M128.56,223.14c2.47-7,.47-15.37-5.28-21.13a18.38,18.38,0,0,0-2.53-2.18,49.15,49.15,0,0,1-15.19-17.26,20.66,20.66,0,0,0-1.84-2.8c-5-6.43-13-9.48-20.29-7.92-3.62.77-7.29,2-9.43,3.87C62.38,186,64,206.84,77.72,222.38s34.18,19.85,45.8,9.62C125.67,230.11,127.34,226.63,128.56,223.14Z"/><path class="cls-13" d="M124.75,181c-9-9.61-12-22-16.1-22.26-4.13-.84-8.31,17.1,4.88,32.14s31.57,13.13,31.26,8.93C145,195.68,133.15,191.09,124.75,181Zm-8.58,7.56c-8.16-9.29-5.57-20.38-3-19.86,2.54.19,4.41,7.82,9.95,13.76,5.19,6.25,12.52,9.08,12.38,11.62C135.67,196.66,124.35,197.81,116.17,188.54Z"/><path class="cls-6" d="M99.33,169.81c-2.85.41-5.64-2.58-6.22-6.67s1.26-7.73,4.11-8.14,5.64,2.58,6.22,6.67S102.19,169.4,99.33,169.81Z"/><path class="cls-6" d="M63.51,177.83c-3.46-1.54.29-15.66,12.55-20.12,12-4.06,15.64,3.36,12,5.85-3.39,3.09-7.64,3.88-12.71,6.92C70,173.19,66.15,179.75,63.51,177.83Z"/><path class="cls-7" d="M233.66,107.45c-32,.33-63.31,14.54-90.41,41.1a200.35,200.35,0,0,0-24.1,28.59c-2.33,3.36-4.11,6.16-5.35,8.2a23.33,23.33,0,0,0,2.37,3.2,21.1,21.1,0,0,0,2,2c.91-1.56,2.61-4.36,5.06-8A194.74,194.74,0,0,1,147.87,153c18-17.63,47.56-38.73,85.86-39.13Z"/><path class="cls-14" d="M233.66,107.45c-32,.33-63.31,14.54-90.41,41.1a200.35,200.35,0,0,0-24.1,28.59c-2.33,3.36-4.11,6.16-5.35,8.2a23.33,23.33,0,0,0,2.37,3.2,21.1,21.1,0,0,0,2,2c.91-1.56,2.61-4.36,5.06-8A194.74,194.74,0,0,1,147.87,153c18-17.63,47.56-38.73,85.86-39.13Z"/><path class="cls-9" d="M212,110.77c-24.08,5.19-47.23,18.28-67.94,38.58A200.52,200.52,0,0,0,120,177.94c-2.32,3.36-4.11,6.17-5.35,8.2.67,1.08,5.69-1.94,8.13-5.55A194.42,194.42,0,0,1,147.38,151,151.73,151.73,0,0,1,182,125.36C196.55,117.62,219.41,109.18,212,110.77Z"/><path class="cls-6" d="M163.18,135.07c-10.87,6.36-20.72,16.12-28.7,25.75-.49.59.35,1.45.85.85,8.38-10.11,18.37-17.58,28.44-25.84C164.2,135.48,163.65,134.79,163.18,135.07Z"/><path class="cls-7" d="M227.49,112.51h0c-1.21-1.91-1.1-4.4.4-5.66l12.83-10.76c3.88-3.27,7.72-.41,9.34,2.14s2.54,7.24-2.07,9.35l-15.22,7C231,115.38,228.69,114.42,227.49,112.51Z"/><path class="cls-15" d="M227.49,112.51h0c-1.21-1.91-1.1-4.4.4-5.66l12.83-10.76c3.88-3.27,7.72-.41,9.34,2.14s2.54,7.24-2.07,9.35l-15.22,7C231,115.38,228.69,114.42,227.49,112.51Z"/><path class="cls-16" d="M249.93,105.2c-1.49.94-4.09-.5-5.81-3.22s-1.91-5.68-.42-6.62,4.08.5,5.8,3.22S251.41,104.26,249.93,105.2Z"/><path class="cls-17" d="M163,70.3c-36.55,5.27-56.65,52.09-56.68,62.74,0,0,21-30.37,41.66-32.15,29.57-2.55,34.82,10.5,68.4,5.32,22.73-3.51,27.9-10.88,27.9-10.88C229.3,83.21,199.53,65,163,70.3Z"/><path class="cls-17" d="M169.37,39c-68.67,6.92-63.06,94-63.06,94,0-10.65,20.13-57.47,56.68-62.74s66.31,12.91,81.28,25C244.27,95.33,238,32.07,169.37,39Z"/><path class="cls-18" d="M163,70.3c-36.55,5.27-56.65,52.09-56.68,62.74,0,0,21-30.37,41.66-32.15,29.57-2.55,34.82,10.5,68.4,5.32,22.73-3.51,27.9-10.88,27.9-10.88C229.3,83.21,199.53,65,163,70.3Z"/><path class="cls-19" d="M169.37,39c-68.67,6.92-63.06,94-63.06,94,0-10.65,20.13-57.47,56.68-62.74s66.31,12.91,81.28,25C244.27,95.33,238,32.07,169.37,39Z"/><g class="cls-20"><path class="cls-21" d="M166.06,97.11c-23.54-6.66-46.27,7.26-55.65,27-2.32,4.9.56,1.55,1.08.83a82.75,82.75,0,0,1,20.56-20.46,34.89,34.89,0,0,1,16.28-5.82,64.87,64.87,0,0,1,16.71.56C171.09,100.08,166.66,97.28,166.06,97.11Z"/><path class="cls-21" d="M200.58,103.93c-4.34-.66-8.18-1.34-12.21-2-5.31-.9-12-3.28-15.73-2.8-1.31.16-1,1-.2,1.34,6.16,2.45,10.94,3.19,16.56,4.21,3.7.67,9.28,1.71,13.06,1C202.7,105.54,203.67,104.4,200.58,103.93Z"/><path class="cls-21" d="M212.21,73a69.41,69.41,0,0,0-48.73-6.52c-5.77,1.34-7.17,3.5-.15,2.57,16.54-2.21,32.22,1.35,48,6.42C214,76.29,217,75.55,212.21,73Z"/><path class="cls-21" d="M216.2,103a34,34,0,0,0-4.5.48c-1.65.25-3.33.35-5,.66-2.9.54-1.27,2.1-.4,2,4.18.27,8.46,0,11.1-1.47C217.92,104.43,219.38,102.91,216.2,103Z"/></g></g></g></svg>